<svg width="28" height="28" viewBox="0 0 28 28" fill="none" xmlns="http://www.w3.org/2000/svg">
<g clip-path="url(#clip0_102_7485)">
<path fill="#DDDDDD" d="M25.6589 13.6461H2.09797C1.17009 13.6461 0.415039 14.4011 0.415039 15.329C0.415039 16.2569 1.17009 17.0119 2.09797 17.0119H25.6589C26.5868 17.0119 27.3419 16.2569 27.3419 15.329C27.3419 14.4011 26.5868 13.6461 25.6589 13.6461Z" />
<path fill="#DDDDDD" d="M25.8144 15.9113C25.5104 15.826 25.2052 15.9988 25.1211 16.2973L25.0773 16.451H2.68202L2.63716 16.2973C2.55302 15.9988 2.24562 15.8283 1.9438 15.9113C1.64534 15.9965 1.47368 16.3074 1.55898 16.6047L3.10502 22.017C3.58407 23.6943 5.13689 24.8656 6.8804 24.8656H20.8767C22.6213 24.8656 24.173 23.6943 24.6521 22.017L26.1981 16.6047C26.2846 16.3073 26.1117 15.9965 25.8144 15.9113ZM6.88151 22.6216C6.13429 22.6216 5.46785 22.1201 5.26363 21.4009L4.5355 18.8496C4.45025 18.5512 4.62302 18.2415 4.92032 18.1563C5.22098 18.071 5.52954 18.2449 5.61368 18.5422L6.34181 21.0936C6.41139 21.3325 6.63238 21.5008 6.88145 21.5008C7.19111 21.5008 7.44245 21.7522 7.44245 22.0618C7.4425 22.3715 7.19116 22.6216 6.88151 22.6216Z" />
<path fill="#DDDDDD" d="M7.95723 23.8019C7.68013 23.6662 7.34465 23.775 7.20439 24.0533L6.08246 26.2972C5.94446 26.5743 6.05663 26.9109 6.33379 27.05C6.41567 27.0904 6.50098 27.1095 6.58512 27.1095C6.79044 27.1095 6.98792 26.9962 7.08664 26.7988L8.20857 24.5548C8.34657 24.2776 8.23434 23.941 7.95723 23.8019Z" />
<path fill="#DDDDDD" d="M21.6734 26.2983L20.5515 24.0544C20.4124 23.7761 20.0758 23.6651 19.7986 23.8031C19.5215 23.9422 19.4093 24.2787 19.5473 24.5559L20.6692 26.7998C20.7679 26.9961 20.9654 27.1095 21.1707 27.1095C21.2549 27.1095 21.3401 27.0904 21.4221 27.0512C21.6992 26.912 21.8114 26.5754 21.6734 26.2983Z" />
<path fill="#DDDDDD" d="M22.9496 0.282471C22.3774 0.282471 21.8389 0.505721 21.4339 0.910781L19.6533 2.69132C19.4346 2.9101 19.4346 3.26577 19.6533 3.48455C19.8721 3.70334 20.2278 3.70334 20.4466 3.48455L22.2271 1.70512C22.4189 1.51216 22.6758 1.40556 22.9552 1.40556C23.5184 1.40556 23.9762 1.86332 23.9762 2.42652V14.207C23.9762 14.5167 24.2275 14.768 24.5371 14.768C24.8468 14.768 25.0981 14.5167 25.0992 14.2059V2.42542C25.0993 1.244 24.1389 0.282471 22.9496 0.282471Z" />
<path fill="#DDDDDD" d="M21.0066 3.25231L19.8847 2.13038C19.7568 2.00248 19.5784 1.94299 19.3967 1.97329L16.5918 2.4333C16.3854 2.46696 16.2159 2.6128 16.1498 2.81028C16.0836 3.00776 16.1341 3.22765 16.2799 3.37685L19.6458 6.84368C19.7524 6.95475 19.8993 7.01423 20.0474 7.01423C20.1002 7.01423 20.154 7.0064 20.2067 6.99067C20.4064 6.93235 20.5579 6.76742 20.5983 6.56321L21.1593 3.75835C21.1962 3.57543 21.139 3.38579 21.0066 3.25231Z" />
<path fill="#DDDDDD" d="M13.713 7.07925C13.4943 6.86047 13.1386 6.86047 12.9198 7.07925L11.7979 8.20118C11.5791 8.41996 11.5791 8.77564 11.7979 8.99442C11.9078 9.10323 12.0514 9.15824 12.195 9.15824C12.3387 9.15824 12.4822 9.10328 12.5911 8.99442L13.713 7.87248C13.9318 7.65365 13.9318 7.29803 13.713 7.07925Z" />
<path fill="#DDDDDD" d="M15.9582 9.32314C15.7394 9.10436 15.3837 9.10436 15.1649 9.32314L14.043 10.4451C13.8242 10.6639 13.8242 11.0195 14.043 11.2383C14.153 11.3471 14.2965 11.4021 14.4402 11.4021C14.5838 11.4021 14.7274 11.3472 14.8362 11.2383L15.9582 10.1164C16.1769 9.8976 16.1769 9.54192 15.9582 9.32314Z" />
<path fill="#DDDDDD" d="M17.0793 5.9573C16.8605 5.73852 16.5048 5.73852 16.286 5.9573L15.1641 7.07923C14.9453 7.29801 14.9453 7.65369 15.1641 7.87247C15.2741 7.98128 15.4176 8.03629 15.5613 8.03629C15.7049 8.03629 15.8485 7.98133 15.9573 7.87247L17.0793 6.75053C17.298 6.53175 17.298 6.17608 17.0793 5.9573Z" />
</g>

</svg>
 
