<svg width="28" height="28" viewBox="0 0 28 28" fill="none" xmlns="http://www.w3.org/2000/svg">
    <path fill="#DDDDDD" d="M19.118 12.0858L18.3891 15.3533C17.0496 15.323 16.4637 15.3091 16.4174 15.3091C15.2215 15.3091 14.1928 16.2284 14.0645 17.4238L13.6748 21.0595C14.3138 21.203 14.8939 21.4986 15.374 21.9177C15.6358 18.648 18.3027 16.2125 21.4396 16.0981L21.9287 13.9403C22.1747 12.8549 23.1239 12.0969 24.2368 12.0969H25.2808C25.0657 11.1211 24.4105 10.3095 23.4992 9.89655C25.2518 8.45217 24.5989 5.58115 22.3467 5.07848C20.863 4.74721 19.3867 5.68576 19.0553 7.17026C18.7792 8.40742 19.3787 9.61029 20.3996 10.1795C19.7457 10.6326 19.2922 11.3047 19.118 12.0858Z" />
    <path fill="#DDDDDD" d="M26.236 15.2523C26.6717 15.2523 27.0249 14.8991 27.0249 14.4634C27.0249 14.0278 26.6717 13.6746 26.236 13.6746H24.2376C23.8691 13.6746 23.5497 13.9297 23.4682 14.289L22.6765 17.7812C18.9867 16.9732 15.9053 20.6232 17.2502 24.1087H15.0093C14.7592 23.3722 14.1427 22.7803 13.3271 22.5982C12.0858 22.3211 10.8505 23.1063 10.5733 24.3483V24.3484C10.2961 25.5904 11.0804 26.8263 12.3216 27.1033C13.4674 27.359 14.6054 26.7144 14.9934 25.6338H18.2038C20.7509 28.3714 25.441 27.1955 26.2802 23.435C26.7308 21.4163 25.8222 19.4118 24.1585 18.3806L24.8677 15.2523H26.236V15.2523ZM13.5356 25.0096C13.4474 25.4046 13.0571 25.651 12.6653 25.5634C12.2732 25.4759 12.0255 25.085 12.1131 24.692C12.2009 24.299 12.5915 24.0505 12.9835 24.1381C13.3762 24.2258 13.6236 24.6153 13.5356 25.0096ZM22.4344 22.5766C22.3394 23.0018 21.9178 23.2696 21.4926 23.1747C21.0674 23.0798 20.7996 22.6581 20.8945 22.2329C20.9894 21.8077 21.4111 21.5399 21.8363 21.6349C22.2615 21.7297 22.5293 22.1514 22.4344 22.5766Z" />
    <path fill="#DDDDDD" d="M14.1868 6.24689C15.7632 5.51066 16.4468 3.6292 15.7105 2.05277C14.9743 0.476391 13.093 -0.207298 11.5164 0.528982C11.5164 0.528982 11.5164 0.528982 11.5163 0.528982C9.93989 1.26521 9.2563 3.14667 9.99253 4.7231C10.7312 6.30468 12.6151 6.98085 14.1868 6.24689Z" />
    <path fill="#DDDDDD" d="M3.56957 26.4134C3.59256 26.8316 3.9384 27.159 4.35729 27.159H6.98686C7.40591 27.159 7.7518 26.8314 7.77458 26.413L7.90853 23.9509H3.43457L3.56957 26.4134Z" />
    <path fill="#DDDDDD" d="M7.85374 9.1869L10.3158 11.1185H14.3701C14.7963 11.1185 15.175 10.9114 15.411 10.5926H17.1899C17.6256 10.5926 17.9788 10.2394 17.9788 9.80375C17.9788 9.36808 17.6256 9.01488 17.1899 9.01488H15.3795C15.1918 8.78069 14.9239 8.61124 14.6116 8.55197C11.8954 8.03057 11.973 8.06444 11.8371 8.00901C9.37611 7.46343 7.76844 5.09429 8.18218 2.61938C3.67293 2.92531 0.0976562 6.69086 0.0976562 11.2764V21.5843C0.0976562 22.02 0.450861 22.3732 0.886528 22.3732H8.82784C9.26351 22.3732 9.61671 22.02 9.61671 21.5843V12.7354L6.79876 10.5347C6.46711 10.2757 6.37298 9.814 6.57672 9.44581C6.83189 8.98474 7.43911 8.86162 7.85374 9.1869Z" />
</svg> 
 
