<svg width="31" height="22" viewBox="0 0 31 22" fill="none" xmlns="http://www.w3.org/2000/svg">
<path fill="#FA9D6B" d="M1.96629 2.40039L2.68734 3.09327L2.68734 3.09327L1.96629 2.40039ZM1.96629 19.9328L1.24523 20.6256L1.24524 20.6256L1.96629 19.9328ZM29.1213 19.9328L29.8423 20.6256L29.8423 20.6256L29.1213 19.9328ZM29.1213 2.40039L28.4002 3.09327V3.09327L29.1213 2.40039ZM1.60576 2.05395L0.88471 1.36106L1.60576 2.05395ZM29.4818 2.05395L30.2029 1.36107L30.2029 1.36106L29.4818 2.05395ZM29.4818 20.2792L30.2029 20.9721L30.2029 20.9721L29.4818 20.2792ZM1.60576 20.2792L2.32681 19.5863L2.32681 19.5863L1.60576 20.2792ZM11.7372 7.18385L12.4598 7.87511L12.4604 7.87447L11.7372 7.18385ZM11.7369 7.1842L12.4587 7.87621L12.4595 7.87546L11.7369 7.1842ZM10.8644 14.6001C10.4657 14.9823 10.4523 15.6153 10.8345 16.014C11.2167 16.4127 11.8497 16.426 12.2484 16.0438L10.8644 14.6001ZM19.3442 15.1487L20.0648 15.8421L20.0662 15.8406L19.3442 15.1487ZM19.344 7.1842L20.0658 6.49218V6.49218L19.344 7.1842ZM11.3757 6.83838L12.0976 7.53037L12.0989 7.52902L11.3757 6.83838ZM19.7049 6.83819L18.983 7.5302H18.983L19.7049 6.83819ZM19.7049 15.495L20.4266 16.1872L20.4268 16.187L19.7049 15.495ZM19.7046 15.4953L20.4251 16.1887L20.4263 16.1875L19.7046 15.4953ZM11.3759 15.495L10.6839 14.7731C10.2852 15.1553 10.2719 15.7883 10.6541 16.187L11.3759 15.495ZM11.5531 15.3251L12.2451 16.047C12.6438 15.6648 12.6571 15.0318 12.275 14.6331C11.8928 14.2344 11.2597 14.2211 10.8611 14.6033L11.5531 15.3251ZM11.3759 15.495L10.654 16.187C11.0362 16.5857 11.6693 16.599 12.0679 16.2168L11.3759 15.495ZM2.78125 3.02256C2.78125 2.94102 2.79142 2.92104 2.78511 2.94067C2.77734 2.96486 2.75148 3.02652 2.68734 3.09327L1.24524 1.7075C0.89243 2.07465 0.78125 2.55936 0.78125 3.02256H2.78125ZM2.78125 19.3106V3.02256H0.78125V19.3106H2.78125ZM2.68734 19.2399C2.75148 19.3066 2.77734 19.3683 2.78512 19.3925C2.79142 19.4121 2.78125 19.3921 2.78125 19.3106H0.78125C0.78125 19.7738 0.892431 20.2585 1.24523 20.6256L2.68734 19.2399ZM2.55034 19.1211C2.48425 19.1211 2.48072 19.1122 2.51518 19.1242C2.55584 19.1384 2.62264 19.1726 2.68733 19.2399L1.24524 20.6256C1.60314 20.9981 2.08542 21.1211 2.55034 21.1211V19.1211ZM28.5372 19.1211H2.55034V21.1211H28.5372V19.1211ZM28.4002 19.2399C28.4649 19.1725 28.5317 19.1384 28.5724 19.1242C28.6069 19.1122 28.6033 19.1211 28.5372 19.1211V21.1211C29.0022 21.1211 29.4844 20.9981 29.8423 20.6256L28.4002 19.2399ZM28.3063 19.3106C28.3063 19.3921 28.2962 19.4121 28.3025 19.3925C28.3102 19.3683 28.3361 19.3066 28.4002 19.2399L29.8423 20.6256C30.1951 20.2585 30.3063 19.7738 30.3063 19.3106H28.3063ZM28.3063 3.02256V19.3106H30.3063V3.02256H28.3063ZM28.4002 3.09327C28.3361 3.02652 28.3102 2.96486 28.3025 2.94067C28.2962 2.92104 28.3063 2.94102 28.3063 3.02256H30.3063C30.3063 2.55937 30.1951 2.07465 29.8423 1.7075L28.4002 3.09327ZM28.5372 3.21204C28.6033 3.21204 28.6069 3.22092 28.5724 3.20892C28.5317 3.19477 28.4649 3.16059 28.4002 3.09327L29.8423 1.70751C29.4844 1.33505 29.0021 1.21204 28.5372 1.21204V3.21204ZM2.55034 3.21204H28.5372V1.21204H2.55034V3.21204ZM2.68734 3.09327C2.62265 3.16059 2.55584 3.19477 2.51519 3.20892C2.48072 3.22092 2.48425 3.21204 2.55034 3.21204V1.21204C2.08542 1.21204 1.60314 1.33505 1.24524 1.7075L2.68734 3.09327ZM2.55034 0.712036C2.00611 0.712036 1.37008 0.855966 0.88471 1.36106L2.32681 2.74683C2.32227 2.75156 2.32322 2.74627 2.34966 2.73711C2.38106 2.72625 2.44423 2.71204 2.55034 2.71204V0.712036ZM28.5372 0.712036H2.55034V2.71204H28.5372V0.712036ZM30.2029 1.36106C29.7175 0.855966 29.0815 0.712036 28.5372 0.712036V2.71204C28.6433 2.71204 28.7065 2.72625 28.7379 2.73711C28.7644 2.74627 28.7653 2.75156 28.7608 2.74683L30.2029 1.36106ZM30.8063 3.02256C30.8063 2.48942 30.6792 1.85673 30.2029 1.36107L28.7608 2.74683C28.7466 2.73206 28.8063 2.77648 28.8063 3.02256H30.8063ZM30.8063 19.3106V3.02256H28.8063V19.3106H30.8063ZM30.2029 20.9721C30.6792 20.4764 30.8063 19.8437 30.8063 19.3106H28.8063C28.8063 19.5567 28.7466 19.6011 28.7608 19.5863L30.2029 20.9721ZM28.5372 21.6211C29.0815 21.6211 29.7175 21.4772 30.2029 20.9721L28.7608 19.5863C28.7653 19.5816 28.7644 19.5869 28.7379 19.596C28.7065 19.6069 28.6433 19.6211 28.5372 19.6211V21.6211ZM2.55034 21.6211H28.5372V19.6211H2.55034V21.6211ZM0.884711 20.9721C1.37008 21.4772 2.00611 21.6211 2.55034 21.6211V19.6211C2.44423 19.6211 2.38106 19.6069 2.34966 19.596C2.32322 19.5869 2.32227 19.5816 2.32681 19.5863L0.884711 20.9721ZM0.28125 19.3106C0.28125 19.8437 0.408403 20.4764 0.884712 20.9721L2.32681 19.5863C2.341 19.6011 2.28125 19.5567 2.28125 19.3106H0.28125ZM0.28125 3.02256V19.3106H2.28125V3.02256H0.28125ZM0.88471 1.36106C0.408403 1.85673 0.28125 2.48942 0.28125 3.02256H2.28125C2.28125 2.77648 2.341 2.73206 2.32681 2.74683L0.88471 1.36106ZM12.4604 7.87447C13.3248 6.96924 14.3272 6.54034 15.5372 6.54034V4.54034C13.7699 4.54034 12.2482 5.20079 11.014 6.49323L12.4604 7.87447ZM12.4595 7.87546L12.4598 7.87511L11.0146 6.49259L11.0143 6.49293L12.4595 7.87546ZM11.1567 11.1666C11.1567 9.85831 11.5873 8.78528 12.4587 7.87621L11.015 6.49218C9.77823 7.78231 9.15674 9.35469 9.15674 11.1666H11.1567ZM12.4587 14.4569C11.5873 13.5479 11.1567 12.4748 11.1567 11.1666H9.15674C9.15674 12.9785 9.77823 14.5508 11.015 15.841L12.4587 14.4569ZM12.2484 16.0438L12.4289 15.8708L11.0448 14.4271L10.8644 14.6001L12.2484 16.0438ZM11.0448 14.4271L10.8644 14.6001L12.2484 16.0438L12.4289 15.8708L11.0448 14.4271ZM15.5372 15.7861C14.3256 15.7861 13.3227 15.3582 12.4587 14.4569L11.015 15.841C12.2494 17.1287 13.7708 17.7861 15.5372 17.7861V15.7861ZM18.6237 14.4552C17.7549 15.358 16.749 15.7861 15.5372 15.7861V17.7861C17.3035 17.7861 18.8264 17.1288 20.0648 15.8421L18.6237 14.4552ZM19.9241 11.1666C19.9241 12.4747 19.4936 13.5477 18.6223 14.4567L20.0662 15.8406C21.3027 14.5506 21.9241 12.9783 21.9241 11.1666H19.9241ZM18.6221 7.87621C19.4935 8.78528 19.9241 9.85832 19.9241 11.1666H21.9241C21.9241 9.35469 21.3026 7.78231 20.0658 6.49218L18.6221 7.87621ZM15.5372 6.54034C16.7474 6.54034 17.7528 6.96943 18.6221 7.87621L20.0658 6.49218C18.8278 5.20068 17.3045 4.54034 15.5372 4.54034V6.54034ZM15.5372 4.04034C13.6306 4.04034 11.9791 4.75864 10.6525 6.14774L12.0989 7.52902C13.0558 6.52707 14.188 6.04034 15.5372 6.04034V4.04034ZM20.4268 6.14617C19.0965 4.75852 17.4438 4.04034 15.5372 4.04034V6.04034C16.8866 6.04034 18.0215 6.52722 18.983 7.5302L20.4268 6.14617ZM22.4241 11.1666C22.4241 9.22882 21.7549 7.53159 20.4268 6.14617L18.983 7.5302C19.9458 8.53452 20.4241 9.73239 20.4241 11.1666H22.4241ZM20.4268 16.187C21.7549 14.8016 22.4241 13.1043 22.4241 11.1666H20.4241C20.4241 12.6008 19.9458 13.7986 18.983 14.8029L20.4268 16.187ZM20.4263 16.1875L20.4266 16.1872L18.9832 14.8028L18.9829 14.8031L20.4263 16.1875ZM15.5372 18.2861C17.4422 18.2861 19.0944 17.5715 20.4251 16.1887L18.984 14.8019C18.0228 15.8007 16.8876 16.2861 15.5372 16.2861V18.2861ZM10.6541 16.187C11.9811 17.5713 13.6321 18.2861 15.5372 18.2861V16.2861C14.1869 16.2861 13.0544 15.8008 12.0978 14.8029L10.6541 16.187ZM10.8611 14.6033L10.6839 14.7731L12.068 16.2168L12.2451 16.047L10.8611 14.6033ZM12.0679 16.2168L12.2451 16.047L10.8611 14.6033L10.6839 14.7731L12.0679 16.2168ZM8.65674 11.1666C8.65674 13.1043 9.32594 14.8016 10.654 16.187L12.0978 14.8029C11.135 13.7986 10.6567 12.6008 10.6567 11.1666H8.65674ZM10.6538 6.14639C9.32587 7.53177 8.65674 9.22893 8.65674 11.1666H10.6567C10.6567 9.73246 11.135 8.53465 12.0976 7.53037L10.6538 6.14639Z" />
</svg>
