<svg width="28" height="30" viewBox="0 0 28 30" fill="none" xmlns="http://www.w3.org/2000/svg">
    <path  d="M1.78403 2.36604L1.0656 1.67044L1.0656 1.67044L1.78403 2.36604ZM1.78403 18.3958L1.0656 19.0914H1.0656L1.78403 18.3958ZM1.42482 18.7436L2.14325 18.048H2.14325L1.42482 18.7436ZM1.42482 2.01824L2.14325 2.71384L1.42482 2.01824ZM26.5211 2.01824L27.2396 1.32265L27.2396 1.32264L26.5211 2.01824ZM26.5211 18.7436L27.2396 19.4392L27.2396 19.4392L26.5211 18.7436ZM26.1619 18.3958L25.4435 17.7002L26.1619 18.3958ZM26.1619 2.36604L25.4435 3.06164L25.4435 3.06164L26.1619 2.36604ZM21.687 13.9002L22.6416 14.1984V14.1984L21.687 13.9002ZM21.6234 13.6471L22.3231 12.9327L21.6234 13.6471ZM20.7219 16.9899L19.7674 16.6917C19.7653 16.6983 19.7633 16.705 19.7614 16.7116L20.7219 16.9899ZM20.67 17.0846L19.9175 16.426L19.9175 16.4261L20.67 17.0846ZM20.6613 17.0941L19.6981 16.8252C19.5751 17.2659 19.7669 17.7338 20.1637 17.9615C20.5605 18.1891 21.0612 18.1185 21.3795 17.7899L20.6613 17.0941ZM20.1335 16.9203L20.8517 17.6161C21.2277 17.228 21.2274 16.6113 20.8509 16.2237L20.1335 16.9203ZM11.0561 26.2896L11.7729 26.9869L11.7743 26.9854L11.0561 26.2896ZM11.0558 26.2899L10.339 25.5926L10.3387 25.5929L11.0558 26.2899ZM9.68063 27.7047L8.9622 28.4003C9.15034 28.5946 9.40918 28.7045 9.67966 28.7047C9.95014 28.705 10.2092 28.5957 10.3977 28.4017L9.68063 27.7047ZM7.999 25.9679L7.28115 25.2717C6.90518 25.6594 6.90492 26.2755 7.28057 26.6635L7.999 25.9679ZM18.4525 15.1893L19.1699 14.4926C18.9815 14.2986 18.7226 14.1892 18.4521 14.1893C18.1817 14.1893 17.9229 14.2989 17.7346 14.4931L18.4525 15.1893ZM21.0639 14.2183L22.0184 14.5165C22.1304 14.1579 22.032 13.7668 21.7636 13.5039C21.4952 13.241 21.1021 13.1508 20.7459 13.2702L21.0639 14.2183ZM20.3684 16.4445L19.651 17.1412C19.8966 17.3941 20.2573 17.499 20.6003 17.4173C20.9432 17.3355 21.2178 17.0792 21.3229 16.7427L20.3684 16.4445ZM18.9084 14.9411L18.5905 13.9929C18.2647 14.1022 18.0178 14.3711 17.9366 14.705C17.8555 15.039 17.9516 15.3912 18.191 15.6377L18.9084 14.9411ZM21.3689 13.5887L21.6869 14.5368L21.3689 13.5887ZM18.2887 14.6413L18.9439 15.3967L18.9439 15.3967L18.2887 14.6413ZM18.2782 14.6509L17.5815 13.9336L17.5815 13.9336L18.2782 14.6509ZM18.272 14.6571L18.9899 15.3533L18.9929 15.3501L18.272 14.6571ZM7.47142 25.7937L6.75356 25.0975H6.75356L7.47142 25.7937ZM7.47127 26.1416L6.75284 26.8372L6.75284 26.8372L7.47127 26.1416ZM9.50067 28.2377L8.78224 28.9333L8.78225 28.9333L9.50067 28.2377ZM9.68004 28.3138L9.68101 27.3138H9.681L9.68004 28.3138ZM9.85955 28.238L10.5766 28.935L9.85955 28.238ZM11.4146 26.6381L10.6978 25.9408L10.6975 25.9411L11.4146 26.6381ZM11.4149 26.6378L12.1317 27.3351L12.1331 27.3336L11.4149 26.6378ZM20.6609 17.0944L21.3791 17.7903C21.7468 17.4108 21.7558 16.8108 21.3997 16.4205L20.6609 17.0944ZM22.3599 13.2431L21.6414 12.5475L22.3599 13.2431ZM22.3542 12.8895L21.6586 13.608L22.3542 12.8895ZM21.6274 13.9996L22.3458 14.6952L21.6274 13.9996ZM21.2739 14.0053L21.9695 13.2869L21.2739 14.0053ZM21.2681 13.6518L20.5497 12.9562L21.2681 13.6518ZM22.0007 12.8953L22.7191 13.5909H22.7191L22.0007 12.8953ZM11.415 26.29L10.6966 26.9855L11.415 26.29ZM11.0615 26.2842L11.7571 27.0027L11.0615 26.2842ZM12.6699 27.586L13.3883 26.8904L12.6699 27.586ZM12.6688 27.935L11.9548 27.2348H11.9548L12.6688 27.935ZM12.2004 28.4125L12.9144 29.1127H12.9144L12.2004 28.4125ZM11.8469 28.4159L11.1467 29.1298L11.8469 28.4159ZM11.8435 28.0624L11.1295 27.3621L11.8435 28.0624ZM12.1412 27.7588L12.8551 28.459C13.2348 28.0719 13.2368 27.4527 12.8596 27.0632L12.1412 27.7588ZM11.0558 26.6378L10.3374 27.3333L11.0558 26.6378ZM14.7475 25.7817L14.0281 25.0872L14.7475 25.7817ZM14.7413 25.4282L15.4359 24.7088V24.7088L14.7413 25.4282ZM12.6701 27.9336L13.3895 28.6281L12.6701 27.9336ZM12.3166 27.9398L13.0112 27.2204L13.0112 27.2204L12.3166 27.9398ZM12.3104 27.5863L13.0298 28.2808L12.3104 27.5863ZM14.3878 25.4345L13.6684 24.7399L14.3878 25.4345ZM2.61426 2.93629C2.61426 2.86693 2.62302 2.8579 2.6136 2.887C2.60263 2.92087 2.5721 2.98972 2.50246 3.06164L1.0656 1.67044C0.721346 2.026 0.614258 2.49436 0.614258 2.93629H2.61426ZM2.61426 5.54082V2.93629H0.614258V5.54082H2.61426ZM2.61426 17.8255V5.54082H0.614258V17.8255H2.61426ZM2.50246 17.7002C2.57209 17.7721 2.60263 17.8409 2.6136 17.8748C2.62302 17.9039 2.61426 17.8949 2.61426 17.8255H0.614258C0.614258 18.2675 0.721347 18.7358 1.0656 19.0914L2.50246 17.7002ZM2.32492 17.5677C2.26768 17.5677 2.2717 17.56 2.31264 17.5742C2.35971 17.5904 2.43248 17.6279 2.50246 17.7002L1.0656 19.0914C1.41399 19.4512 1.88087 19.5677 2.32492 19.5677V17.5677ZM12.1477 17.5677H2.32492V19.5677H12.1477V17.5677ZM13.3977 18.8177C13.3977 18.1274 12.8381 17.5677 12.1477 17.5677V19.5677C11.7335 19.5677 11.3977 19.2319 11.3977 18.8177H13.3977ZM12.1477 20.0677C12.8381 20.0677 13.3977 19.5081 13.3977 18.8177H11.3977C11.3977 18.4035 11.7335 18.0677 12.1477 18.0677V20.0677ZM2.32492 20.0677H12.1477V18.0677H2.32492V20.0677ZM0.706383 19.4392C1.18249 19.9309 1.80272 20.0677 2.32492 20.0677V18.0677C2.22807 18.0677 2.17282 18.0548 2.14813 18.0463C2.12834 18.0395 2.13346 18.0379 2.14325 18.048L0.706383 19.4392ZM0.114258 17.8255C0.114258 18.3381 0.237659 18.955 0.706383 19.4392L2.14325 18.048C2.15259 18.0576 2.14757 18.0588 2.13822 18.0298C2.12745 17.9964 2.11426 17.9317 2.11426 17.8255H0.114258ZM0.114258 5.54082V17.8255H2.11426V5.54082H0.114258ZM0.114258 2.93629V5.54082H2.11426V2.93629H0.114258ZM0.706384 1.32265C0.237659 1.80676 0.114258 2.42375 0.114258 2.93629H2.11426C2.11426 2.83015 2.12745 2.76545 2.13822 2.73203C2.14757 2.703 2.15259 2.7042 2.14325 2.71384L0.706384 1.32265ZM2.32492 0.694092C1.80271 0.694092 1.18249 0.830909 0.706384 1.32265L2.14325 2.71384C2.13346 2.72395 2.12834 2.72228 2.14814 2.71547C2.17283 2.70699 2.22808 2.69409 2.32492 2.69409V0.694092ZM25.621 0.694092H2.32492V2.69409H25.621V0.694092ZM27.2396 1.32264C26.7635 0.83091 26.1432 0.694092 25.621 0.694092V2.69409C25.7179 2.69409 25.7731 2.70699 25.7978 2.71547C25.8176 2.72228 25.8125 2.72395 25.8027 2.71384L27.2396 1.32264ZM27.8317 2.93629C27.8317 2.42375 27.7083 1.80676 27.2396 1.32265L25.8027 2.71384C25.7934 2.7042 25.7984 2.703 25.8077 2.73203C25.8185 2.76545 25.8317 2.83015 25.8317 2.93629H27.8317ZM27.8317 5.54082V2.93629H25.8317V5.54082H27.8317ZM27.8317 17.8255V5.54082H25.8317V17.8255H27.8317ZM27.2396 19.4392C27.7083 18.955 27.8317 18.3381 27.8317 17.8255H25.8317C25.8317 17.9317 25.8185 17.9964 25.8077 18.0298C25.7984 18.0588 25.7934 18.0576 25.8027 18.048L27.2396 19.4392ZM25.621 20.0677C26.1432 20.0677 26.7635 19.9309 27.2396 19.4392L25.8027 18.048C25.8125 18.0379 25.8176 18.0395 25.7978 18.0463C25.7731 18.0548 25.7179 18.0677 25.621 18.0677V20.0677ZM21.0639 20.0677H25.621V18.0677H21.0639V20.0677ZM19.8139 18.8177C19.8139 19.5081 20.3735 20.0677 21.0639 20.0677V18.0677C21.4781 18.0677 21.8139 18.4035 21.8139 18.8177H19.8139ZM21.0639 17.5677C20.3735 17.5677 19.8139 18.1274 19.8139 18.8177H21.8139C21.8139 19.2319 21.4781 19.5677 21.0639 19.5677V17.5677ZM25.621 17.5677H21.0639V19.5677H25.621V17.5677ZM25.4435 17.7002C25.5135 17.6279 25.5862 17.5904 25.6333 17.5742C25.6743 17.56 25.6783 17.5677 25.621 17.5677V19.5677C26.0651 19.5677 26.532 19.4512 26.8804 19.0914L25.4435 17.7002ZM25.3317 17.8255C25.3317 17.8949 25.3229 17.9039 25.3324 17.8748C25.3433 17.8409 25.3739 17.7721 25.4435 17.7002L26.8804 19.0914C27.2246 18.7358 27.3317 18.2675 27.3317 17.8255H25.3317ZM25.3317 5.54082V17.8255H27.3317V5.54082H25.3317ZM25.3317 2.93629V5.54082H27.3317V2.93629H25.3317ZM25.4435 3.06164C25.3739 2.98972 25.3433 2.92087 25.3324 2.88701C25.3229 2.8579 25.3317 2.86693 25.3317 2.93629H27.3317C27.3317 2.49435 27.2246 2.026 26.8804 1.67044L25.4435 3.06164ZM25.621 3.19409C25.6783 3.19409 25.6743 3.20179 25.6333 3.18764C25.5862 3.17137 25.5135 3.13392 25.4435 3.06164L26.8804 1.67044C26.532 1.31062 26.0651 1.19409 25.621 1.19409V3.19409ZM2.32492 3.19409H25.621V1.19409H2.32492V3.19409ZM2.50246 3.06164C2.43248 3.13392 2.35971 3.17137 2.31264 3.18764C2.27171 3.20179 2.26768 3.19409 2.32492 3.19409V1.19409C1.88087 1.19409 1.41399 1.31062 1.0656 1.67044L2.50246 3.06164ZM22.6416 14.1984C22.7816 13.7502 22.6586 13.2613 22.3231 12.9327L20.9236 14.3615C20.7223 14.1643 20.6485 13.871 20.7325 13.6021L22.6416 14.1984ZM21.6764 17.2881L22.6416 14.1984L20.7325 13.602L19.7674 16.6917L21.6764 17.2881ZM21.4225 17.7432C21.5457 17.6024 21.6327 17.4395 21.6824 17.2682L19.7614 16.7116C19.7913 16.6085 19.8437 16.5103 19.9175 16.426L21.4225 17.7432ZM21.3795 17.7899C21.3942 17.7747 21.4086 17.7592 21.4226 17.7431L19.9175 16.4261C19.9259 16.4165 19.9344 16.4072 19.9431 16.3983L21.3795 17.7899ZM21.6245 17.3629L22.5865 13.9159L20.6602 13.3783L19.6981 16.8252L21.6245 17.3629ZM19.4153 16.2245L10.3379 25.5938L11.7743 26.9854L20.8517 17.6161L19.4153 16.2245ZM10.3393 25.5924L10.339 25.5926L11.7726 26.9871L11.7729 26.9868L10.3393 25.5924ZM10.3387 25.5929L8.96354 27.0077L10.3977 28.4017L11.7729 26.9869L10.3387 25.5929ZM10.3991 27.0091L8.71743 25.2723L7.28057 26.6635L8.9622 28.4003L10.3991 27.0091ZM8.71685 26.6641L19.1703 15.8855L17.7346 14.4931L7.28115 25.2717L8.71685 26.6641ZM17.7351 15.8859L19.4161 17.617L20.8509 16.2237L19.1699 14.4926L17.7351 15.8859ZM20.1093 13.9201L19.4139 16.1464L21.3229 16.7427L22.0184 14.5165L20.1093 13.9201ZM19.2263 15.8892L21.3818 15.1664L20.7459 13.2702L18.5905 13.9929L19.2263 15.8892ZM21.0858 15.7479L19.6258 14.2444L18.191 15.6377L19.651 17.1412L21.0858 15.7479ZM21.051 12.6405L18.0599 13.6435L18.6957 15.5397L21.6869 14.5368L21.051 12.6405ZM22.3231 12.9327C21.9876 12.6041 21.4963 12.4912 21.051 12.6405L21.6869 14.5368C21.4197 14.6263 21.1249 14.5586 20.9236 14.3615L22.3231 12.9327ZM21.3439 12.6869L18.0984 13.6314L18.6572 15.5518L21.9028 14.6073L21.3439 12.6869ZM18.0804 13.6369C17.9195 13.687 17.7667 13.7703 17.6336 13.8858L18.9439 15.3967C18.8641 15.4659 18.7721 15.5162 18.6752 15.5464L18.0804 13.6369ZM17.6336 13.8858C17.6159 13.9011 17.5985 13.9171 17.5815 13.9336L18.9749 15.3683C18.9648 15.3781 18.9544 15.3876 18.9439 15.3967L17.6336 13.8858ZM17.5815 13.9336C17.5712 13.9435 17.5611 13.9537 17.5511 13.9641L18.9929 15.3501C18.987 15.3564 18.9809 15.3624 18.9749 15.3683L17.5815 13.9336ZM17.5542 13.9609L6.75356 25.0975L8.18927 26.4899L18.9899 15.3533L17.5542 13.9609ZM6.75356 25.0975C6.2836 25.5821 6.28328 26.3523 6.75284 26.8372L8.1897 25.4461C8.47144 25.737 8.47125 26.1991 8.18927 26.4899L6.75356 25.0975ZM6.75284 26.8372L8.78224 28.9333L10.2191 27.5421L8.1897 25.446L6.75284 26.8372ZM8.78225 28.9333C9.01742 29.1762 9.34097 29.3134 9.67908 29.3138L9.681 27.3138C9.88387 27.314 10.078 27.3963 10.2191 27.5421L8.78225 28.9333ZM9.67907 29.3138C10.0172 29.3141 10.341 29.1775 10.5766 28.935L9.14247 27.541C9.28386 27.3956 9.47815 27.3136 9.68101 27.3138L9.67907 29.3138ZM10.5766 28.935L12.1317 27.3351L10.6975 25.9411L9.14247 27.541L10.5766 28.935ZM12.1315 27.3353L12.1317 27.3351L10.6981 25.9406L10.6978 25.9408L12.1315 27.3353ZM12.1331 27.3336L21.3791 17.7903L19.9427 16.3986L10.6967 25.942L12.1331 27.3336ZM21.3997 16.4205L19.1166 13.9177L17.639 15.2655L19.9221 17.7684L21.3997 16.4205ZM23.0783 13.9386C23.5585 13.4427 23.5457 12.6513 23.0498 12.1711L21.6586 13.608C21.361 13.3199 21.3533 12.845 21.6414 12.5475L23.0783 13.9386ZM22.3458 14.6952L23.0783 13.9386L21.6414 12.5475L20.9089 13.304L22.3458 14.6952ZM20.5783 14.7237C21.0742 15.204 21.8656 15.1912 22.3458 14.6952L20.9089 13.304C21.1971 13.0064 21.6719 12.9988 21.9695 13.2869L20.5783 14.7237ZM20.5497 12.9562C20.0695 13.4522 20.0823 14.2435 20.5783 14.7237L21.9695 13.2869C22.267 13.575 22.2747 14.0498 21.9866 14.3474L20.5497 12.9562ZM21.2822 12.1997L20.5497 12.9562L21.9866 14.3474L22.7191 13.5909L21.2822 12.1997ZM23.0498 12.1711C22.5538 11.6909 21.7624 11.7037 21.2822 12.1997L22.7191 13.5909C22.431 13.8884 21.9561 13.8961 21.6586 13.608L23.0498 12.1711ZM4.78662 7.9744C4.09627 7.9744 3.53662 8.53404 3.53662 9.2244H5.53662C5.53662 9.63861 5.20083 9.9744 4.78662 9.9744V7.9744ZM13.6007 7.9744H4.78662V9.9744H13.6007V7.9744ZM14.8507 9.2244C14.8507 8.53404 14.2911 7.9744 13.6007 7.9744V9.9744C13.1865 9.9744 12.8507 9.63861 12.8507 9.2244H14.8507ZM13.6007 10.4744C14.2911 10.4744 14.8507 9.91475 14.8507 9.2244H12.8507C12.8507 8.81018 13.1865 8.4744 13.6007 8.4744V10.4744ZM4.78662 10.4744H13.6007V8.4744H4.78662V10.4744ZM3.53662 9.2244C3.53662 9.91475 4.09627 10.4744 4.78662 10.4744V8.4744C5.20083 8.4744 5.53662 8.81018 5.53662 9.2244H3.53662ZM4.78662 11.3727C4.09627 11.3727 3.53662 11.9323 3.53662 12.6227H5.53662C5.53662 13.0369 5.20083 13.3727 4.78662 13.3727V11.3727ZM13.6007 11.3727H4.78662V13.3727H13.6007V11.3727ZM14.8507 12.6227C14.8507 11.9323 14.2911 11.3727 13.6007 11.3727V13.3727C13.1865 13.3727 12.8507 13.0369 12.8507 12.6227H14.8507ZM13.6007 13.8727C14.2911 13.8727 14.8507 13.313 14.8507 12.6227H12.8507C12.8507 12.2084 13.1865 11.8727 13.6007 11.8727V13.8727ZM4.78662 13.8727H13.6007V11.8727H4.78662V13.8727ZM3.53662 12.6227C3.53662 13.313 4.09627 13.8727 4.78662 13.8727V11.8727C5.20083 11.8727 5.53662 12.2084 5.53662 12.6227H3.53662ZM12.1334 25.5944C11.6532 25.0984 10.8619 25.0856 10.3659 25.5658L11.7571 27.0027C11.4595 27.2908 10.9847 27.2831 10.6966 26.9855L12.1334 25.5944ZM13.3883 26.8904L12.1334 25.5944L10.6966 26.9855L11.9514 28.2816L13.3883 26.8904ZM13.3827 28.6352C13.8573 28.1513 13.8598 27.3774 13.3883 26.8904L11.9514 28.2816C11.6686 27.9895 11.6701 27.5251 11.9548 27.2348L13.3827 28.6352ZM12.9144 29.1127L13.3827 28.6352L11.9548 27.2348L11.4865 27.7122L12.9144 29.1127ZM11.1467 29.1298C11.6395 29.6132 12.431 29.6055 12.9144 29.1127L11.4865 27.7122C11.7765 27.4165 12.2514 27.4119 12.5471 27.702L11.1467 29.1298ZM11.1295 27.3621C10.6461 27.855 10.6538 28.6464 11.1467 29.1298L12.5471 27.702C12.8428 27.992 12.8474 28.4669 12.5574 28.7626L11.1295 27.3621ZM11.4273 27.0586L11.1295 27.3621L12.5574 28.7626L12.8551 28.459L11.4273 27.0586ZM10.3374 27.3333L11.4228 28.4544L12.8596 27.0632L11.7742 25.9422L10.3374 27.3333ZM10.3659 25.5658C9.86994 26.046 9.85716 26.8374 10.3374 27.3333L11.7742 25.9422C12.0624 26.2397 12.0547 26.7146 11.7571 27.0027L10.3659 25.5658ZM1.36426 4.29083C0.673902 4.29083 0.114258 4.85048 0.114258 5.54083H2.11426C2.11426 5.95505 1.77847 6.29083 1.36426 6.29083V4.29083ZM26.5817 4.29083H1.36426V6.29083H26.5817V4.29083ZM27.8317 5.54083C27.8317 4.85048 27.2721 4.29083 26.5817 4.29083V6.29083C26.1675 6.29083 25.8317 5.95505 25.8317 5.54083H27.8317ZM26.5817 6.79083C27.2721 6.79083 27.8317 6.23119 27.8317 5.54083H25.8317C25.8317 5.12662 26.1675 4.79083 26.5817 4.79083V6.79083ZM1.36426 6.79083H26.5817V4.79083H1.36426V6.79083ZM0.114258 5.54083C0.114258 6.23119 0.673902 6.79083 1.36426 6.79083V4.79083C1.77847 4.79083 2.11426 5.12662 2.11426 5.54083H0.114258ZM18.0556 7.97439C17.3653 7.97439 16.8056 8.53403 16.8056 9.22439H18.8056C18.8056 9.6386 18.4699 9.97439 18.0556 9.97439V7.97439ZM23.6755 7.97439H18.0556V9.97439H23.6755V7.97439ZM24.9255 9.22439C24.9255 8.53404 24.3659 7.97439 23.6755 7.97439V9.97439C23.2613 9.97439 22.9255 9.6386 22.9255 9.22439H24.9255ZM23.6755 10.4744C24.3659 10.4744 24.9255 9.91475 24.9255 9.22439H22.9255C22.9255 8.81018 23.2613 8.47439 23.6755 8.47439V10.4744ZM18.0556 10.4744H23.6755V8.47439H18.0556V10.4744ZM16.8056 9.22439C16.8056 9.91475 17.3653 10.4744 18.0556 10.4744V8.47439C18.4699 8.47439 18.8056 8.81018 18.8056 9.22439H16.8056ZM15.467 26.4763C15.9465 25.9796 15.9325 25.1883 15.4359 24.7088L14.0468 26.1477C13.7488 25.86 13.7404 25.3852 14.0281 25.0872L15.467 26.4763ZM13.3895 28.6281L15.467 26.4763L14.0281 25.0872L11.9507 27.239L13.3895 28.6281ZM11.622 28.6592C12.1187 29.1387 12.91 29.1248 13.3895 28.6281L11.9507 27.239C12.2384 26.941 12.7132 26.9327 13.0112 27.2204L11.622 28.6592ZM11.5909 26.8917C11.1114 27.3884 11.1254 28.1797 11.622 28.6592L13.0112 27.2204C13.3092 27.508 13.3175 27.9829 13.0298 28.2808L11.5909 26.8917ZM13.6684 24.7399L11.5909 26.8917L13.0298 28.2808L15.1072 26.129L13.6684 24.7399ZM15.4359 24.7088C14.9392 24.2293 14.1479 24.2432 13.6684 24.7399L15.1072 26.129C14.8196 26.427 14.3448 26.4354 14.0468 26.1477L15.4359 24.7088Z" fill="#FA9D6B"/>
</svg>
