<svg width="29" height="22" viewBox="0 0 29 22" fill="none" xmlns="http://www.w3.org/2000/svg">
<path fill="#FA9D6B" d="M20.6889 14.3862C19.893 13.3675 19.0623 12.8124 17.8864 13.1082C16.868 13.3643 16.7305 14.1921 16.6764 15.1417C16.3242 14.9969 16.0388 14.7783 15.7621 14.7886C15.2096 14.8093 14.4917 14.7798 14.1602 15.1003C13.8358 15.4137 13.7189 16.1875 13.8501 16.667C14.025 17.3072 14.0067 17.6277 13.4351 18.0404C13.1171 18.2702 12.8492 18.9414 12.951 19.3025C13.1593 20.0397 12.7435 20.3618 12.28 20.5113C11.962 20.6139 11.3355 20.4453 11.1773 20.1916C10.9602 19.8449 10.9801 19.2906 11.0453 18.8468C11.0874 18.5621 11.3943 18.3172 11.5827 18.0547C11.5342 17.984 11.4849 17.9124 11.4365 17.8416C11.1828 17.9338 10.9133 17.9975 10.6804 18.1271C10.4673 18.2456 10.2932 18.5669 10.1016 18.5669C9.49343 18.5677 8.7167 18.6663 8.31839 18.3426C7.8064 17.9259 8.38756 17.4225 8.76042 17.0503C9.39723 16.4149 10.0571 15.801 10.6494 15.1266C10.7981 14.9572 10.7249 14.5938 10.7535 14.3194C10.5126 14.4061 10.2129 14.4299 10.0396 14.5898C9.26685 15.3063 8.54895 16.0817 7.77301 16.7942C7.29998 17.2285 6.78481 17.5545 6.15913 16.9294C5.54458 16.3147 5.45236 15.6785 6.02477 15.0486C6.71246 14.2923 7.49635 13.6251 8.18881 12.8736C8.40346 12.6406 8.45752 12.2597 8.58473 11.9463C8.2691 12.0418 7.88113 12.0529 7.65217 12.2493C6.92473 12.876 6.26487 13.5798 5.56287 14.2367C5.13674 14.6351 4.6319 14.9683 4.07778 14.5309C3.50457 14.0792 3.37021 13.4764 3.73989 12.7917C4.73525 10.9467 6.23386 9.54622 7.83741 8.26983C9.16986 7.20974 10.5945 6.26179 12.0025 5.29953C13.2364 4.45575 13.9487 4.6148 14.8033 5.80372C15.2549 6.43118 15.6874 7.09284 16.2391 7.62408C17.3291 8.67303 18.8269 8.56567 19.552 7.45627C19.9352 6.87017 20.0409 6.30633 19.5774 5.65501C19.226 5.16115 18.9541 4.57027 18.8023 3.98257C18.4421 2.58768 17.7242 1.56816 16.2956 1.13315C16.0491 1.05839 15.8297 0.89298 15.4775 0.706093C16.4069 0.133505 17.1979 0.077836 18.0208 0.551812C18.745 0.969325 19.4454 1.43853 20.2015 1.78765C21.3114 2.2998 22.4649 2.45169 23.5954 1.80435C24.2799 1.41229 24.8611 1.57293 25.327 2.1479C27.1166 4.35714 28.228 6.82006 28.1286 9.7347C28.1056 10.4019 27.8011 10.8075 27.212 11.1057C26.2508 11.5924 25.327 12.1515 24.3769 12.6613C24.1997 12.7559 23.9556 12.8418 23.7751 12.7973C22.3401 12.4442 21.1531 12.5976 20.6889 14.3862Z" />
<path fill="#FA9D6B" d="M18.738 6.69284C18.001 7.46663 17.2879 7.5056 16.4953 6.60536C15.5619 5.54607 14.8249 4.37465 14.9482 2.80799C14.8217 2.99726 14.6619 3.17301 14.5769 3.37978C14.3543 3.91817 14.0784 4.00645 13.4503 3.92215C12.8104 3.83626 12.0122 4.05496 11.4517 4.40805C9.80281 5.44905 8.15553 6.52424 6.66567 7.77519C5.47553 8.77484 4.26154 9.23847 2.67151 9.07067C3.11035 9.39116 3.54921 9.71165 3.99441 10.0369C3.51422 10.6795 3.05868 11.2895 2.57531 11.936C1.91783 11.532 1.18244 11.136 0.519396 10.6437C0.26499 10.4544 0.054311 10.0536 0.0288704 9.73313C-0.203274 6.74692 0.980506 4.29433 3.00541 2.19802C3.57783 1.60555 4.23053 1.35902 5.08279 1.81709C6.44307 2.54953 7.84865 2.56623 9.27968 1.89423C10.0318 1.54114 10.8363 1.17929 11.6465 1.0942C13.6332 0.885839 15.2844 1.90934 16.9349 2.82548C17.1209 2.92887 17.2163 3.22391 17.3157 3.44738C17.7903 4.50746 18.2499 5.57391 18.738 6.69284Z" />
<path fill="#FA9D6B" d="M22.047 16.6702C22.5423 17.545 22.71 18.275 21.9055 18.9041C21.1788 19.4727 20.48 19.3813 19.7661 18.8564C19.7017 20.5113 19.1269 20.9089 17.7674 20.4493C17.5997 20.8827 17.5472 21.507 17.2467 21.6692C16.8619 21.8768 16.1973 21.8704 15.7958 21.67C15.1788 21.3622 14.5508 20.8978 14.1819 20.3332C13.9362 19.957 14.0014 19.2397 14.1851 18.7769C14.2837 18.5279 14.9236 18.4929 15.3593 18.3482C15.019 17.6786 14.1461 16.8157 15.0874 15.9449C16.1965 14.9182 17.0106 16.1318 18.0568 16.6996C17.8151 15.6451 17.4733 14.6844 18.7238 14.2566C20.1612 13.7643 20.5508 15.032 21.4102 15.9481C21.3402 14.597 21.5962 13.5488 22.9883 13.4741C23.959 13.4216 24.4837 14.1492 24.8462 14.9349C25.1873 15.6745 24.851 16.6193 24.1363 17.1625C23.544 17.6118 23.3604 17.5752 22.047 16.6702Z" />
</svg>
