<svg width="28" height="28" viewBox="0 0 28 28" fill="none" xmlns="http://www.w3.org/2000/svg">
    <path fill="#DDDDDD" d="M23.1788 22.2636H4.82436C4.48673 22.2636 4.213 22.5373 4.21237 22.875L4.20996 24.6595C4.20939 25.327 4.46871 25.9546 4.94026 26.4267C5.41238 26.8994 6.03929 27.1594 6.70687 27.1594H21.2938C22.6708 27.1594 23.7908 26.0394 23.7908 24.6625V22.8755C23.7908 22.5373 23.5171 22.2636 23.1788 22.2636Z" />
    <path fill="#DDDDDD" d="M20.7313 2.68046C20.3566 2.68046 19.9717 2.7181 19.5641 2.794C18.1639 1.16123 16.157 0.232544 13.9996 0.232544C9.95005 0.232544 6.65589 3.5267 6.65589 7.57623C6.65589 7.91387 6.38159 8.18822 6.0439 8.18822C5.70626 8.18822 5.43191 7.91393 5.43191 7.57623C5.43191 6.25127 5.73673 4.96934 6.33793 3.76635C6.44493 3.55241 6.41739 3.29601 6.268 3.10955C6.1186 2.92429 5.87413 2.84179 5.64229 2.89859C2.63562 3.64862 0.536133 6.32717 0.536133 9.41215C0.536133 11.9557 1.97045 14.2679 4.22232 15.4111L4.21572 20.4271C4.21572 20.589 4.27969 20.745 4.39444 20.8603C4.50976 20.9751 4.66518 21.0396 4.82771 21.0396H23.1792C23.5175 21.0396 23.7912 20.7659 23.7912 20.4276V15.4021C26.0347 14.2559 27.463 11.9472 27.463 9.4121C27.463 5.70026 24.4432 2.68046 20.7313 2.68046ZM9.49222 17.2292C9.37805 17.3224 9.24064 17.3678 9.10438 17.3678C8.9275 17.3678 8.75177 17.2914 8.63048 17.1443C8.42847 16.8975 6.65589 14.6911 6.65589 13.084C6.65589 12.7457 6.92962 12.472 7.26788 12.472C7.60615 12.472 7.87988 12.7457 7.87988 13.084C7.87988 13.9697 8.92096 15.5678 9.57713 16.3674C9.79101 16.6292 9.75338 17.0146 9.49222 17.2292ZM14.6115 16.7558C14.6115 17.0941 14.3378 17.3678 13.9995 17.3678C13.6613 17.3678 13.3876 17.0941 13.3876 16.7558V13.084C13.3876 12.7457 13.6613 12.472 13.9996 12.472C14.3378 12.472 14.6116 12.7457 14.6116 13.084V16.7558H14.6115ZM19.3687 17.1443C19.2473 17.2914 19.0722 17.3678 18.8954 17.3678C18.7585 17.3678 18.6211 17.3224 18.5075 17.2292C18.2464 17.0146 18.2081 16.6292 18.422 16.368C19.0783 15.5666 20.1193 13.9667 20.1193 13.084C20.1193 12.7457 20.393 12.472 20.7313 12.472C21.0695 12.472 21.3433 12.7457 21.3433 13.084C21.3433 14.691 19.5707 16.8975 19.3687 17.1443Z" />
</svg>

