<svg width="28" height="28" viewBox="0 0 28 28" fill="none" xmlns="http://www.w3.org/2000/svg">
    <path fill="#FA9D6B" d="M4.47562 13.6877C4.49021 8.47508 8.80493 4.18525 14.0195 4.19858C19.237 4.21232 23.5313 8.5238 23.5163 13.7336C23.5013 18.9471 19.187 23.2373 13.9724 23.2231C8.757 23.2098 4.46103 18.8963 4.47562 13.6877ZM10.3571 16.0794C10.3304 16.0403 10.3033 16.0007 10.2767 15.9615C10.4463 15.8241 10.6147 15.6854 10.7856 15.5497C11.1619 15.2498 11.5446 14.9575 11.9159 14.651C12.6003 14.0867 13.0692 13.4 13.188 12.493C13.3635 11.1532 12.4278 9.93931 11.0744 9.7848C9.78941 9.63821 8.5932 10.6377 8.48566 11.9487C8.44148 12.4863 8.73991 12.884 9.21381 12.9182C9.66229 12.9506 10.0057 12.6154 10.0512 12.1023C10.0808 11.7671 10.2458 11.5247 10.5605 11.4006C11.1632 11.1628 11.7263 11.6767 11.6208 12.3618C11.5433 12.8673 11.2136 13.2005 10.8418 13.5041C10.3879 13.8751 9.91279 14.2216 9.47931 14.6148C8.82702 15.2065 8.48108 15.9545 8.48066 16.8452C8.48066 17.2804 8.79618 17.6365 9.22507 17.6419C10.3021 17.6557 11.3795 17.6552 12.4565 17.6423C12.8742 17.6373 13.1976 17.2792 13.2034 16.8732C13.2093 16.4571 12.8796 16.1073 12.4503 16.0807C12.3281 16.0732 12.2052 16.0794 12.0827 16.0794C11.5075 16.0794 10.9323 16.0794 10.3571 16.0794ZM17.9425 14.4965C17.9425 15.3119 17.9354 16.0894 17.9454 16.8669C17.9508 17.3129 18.3084 17.6523 18.736 17.6473C19.1528 17.6423 19.508 17.3092 19.5096 16.8765C19.5167 14.7684 19.5167 12.66 19.51 10.5519C19.5088 10.1067 19.1441 9.76856 18.7164 9.77481C18.2905 9.78147 17.9491 10.1263 17.9445 10.5752C17.9375 11.2574 17.9425 11.9399 17.9425 12.6221C17.9425 12.7153 17.9425 12.809 17.9425 12.9094C17.4023 12.9094 16.8913 12.9094 16.3594 12.9094C16.3594 12.1519 16.3603 11.4098 16.359 10.6681C16.3582 10.135 16.0402 9.77481 15.5738 9.77439C15.1074 9.77398 14.7889 10.1342 14.7881 10.6668C14.7869 11.6292 14.7881 12.5912 14.7877 13.5537C14.7873 14.2 15.0836 14.4952 15.7359 14.4957C16.4607 14.4969 17.186 14.4965 17.9425 14.4965Z" />
    <path fill="#FA9D6B" d="M24.5506 6.65139C24.1909 6.94332 23.7074 6.88085 23.394 6.48065C22.7429 5.649 22.0027 4.90856 21.1691 4.26015C20.8548 4.0157 20.7611 3.69004 20.8794 3.35313C20.9928 3.02955 21.2741 2.83049 21.6409 2.7851C21.8106 2.8638 22.0015 2.91544 22.1482 3.0258C23.0914 3.7346 23.9167 4.56499 24.6352 5.50158C24.9328 5.89096 24.8953 6.37154 24.5506 6.65139Z" />
    <path fill="#FA9D6B" d="M27.3787 15.8803C27.377 15.889 27.3762 15.8982 27.3745 15.9065C27.1453 17.2975 26.7151 18.6259 26.0366 19.8649C23.9088 23.7457 20.6602 26.1066 16.3143 26.9536C15.827 27.0482 15.3302 27.0923 14.8375 27.1594H13.1549C12.6185 27.0856 12.0742 27.0494 11.5473 26.9336C6.925 25.9175 3.66311 23.3672 1.7946 19.2893C1.77834 19.2552 1.76292 19.2215 1.74791 19.1873C1.62538 18.9158 1.50909 18.6368 1.39947 18.3515C0.842208 16.876 0.537109 15.2769 0.537109 13.6065C0.537109 13.1888 0.555866 12.7753 0.593378 12.3672C0.86013 9.45411 2.05593 6.80967 3.8836 4.73284C3.7869 4.73409 3.71021 4.73534 3.63269 4.73034C3.20255 4.70244 2.8787 4.35846 2.88078 3.93618C2.88286 3.51349 3.21005 3.16117 3.64144 3.15451C4.27164 3.14451 4.9031 3.14285 5.53413 3.14868C5.66542 3.14909 5.7963 3.15076 5.92801 3.15243C6.33481 3.15826 6.67617 3.48059 6.68409 3.88371C6.70034 4.66288 6.69826 5.44247 6.68534 6.22123C6.67867 6.60103 6.38024 6.89962 6.01179 6.94668C5.61916 6.99707 5.27238 6.78759 5.15484 6.41154C5.114 6.28078 5.10983 6.13835 5.08857 6.00093C5.07232 5.98677 5.05606 5.97261 5.03981 5.95803C5.02522 5.9901 5.01563 6.02591 4.99521 6.05298C4.74721 6.38073 4.48046 6.69639 4.2508 7.03621C2.54734 9.55863 1.81085 12.3251 2.23807 15.3556C2.59819 17.9117 3.67812 20.1439 5.51079 21.9654C8.5972 25.0326 12.3109 26.197 16.5739 25.2774C21.5051 24.2142 25.1129 20.2734 25.8682 15.296C25.9378 14.8421 26.1483 14.5889 26.5226 14.5119C26.7872 14.4577 27.0219 14.5356 27.2207 14.7426C27.249 14.7726 27.277 14.8046 27.3036 14.8396C27.3382 14.8937 27.3637 14.9583 27.3807 15.0287C27.4491 15.2948 27.4153 15.6479 27.3787 15.8803Z" />
    <path fill="#FA9D6B" d="M27.3882 14.9599C27.3862 14.9824 27.3837 15.0058 27.3808 15.0282C27.3633 14.9579 27.3383 14.8933 27.3037 14.8392C27.3329 14.8762 27.3608 14.917 27.3882 14.9599Z" />
    <path fill="#FA9D6B" d="M13.2024 1.17265C13.1499 1.49457 12.8994 1.77817 12.5635 1.82523C11.4698 1.97765 10.4415 2.33787 9.42747 2.7539C8.97941 2.93714 8.52801 2.74016 8.36421 2.3183C8.20457 1.90768 8.39672 1.47083 8.83644 1.29134C9.28117 1.10977 9.72798 0.926116 10.186 0.782858C10.6524 0.636269 11.1251 0.511335 11.5619 0.394313C11.5632 0.394313 11.564 0.393897 11.5657 0.393064C11.6182 0.382236 11.6844 0.362663 11.7607 0.341008C11.7645 0.339758 11.7682 0.338925 11.7724 0.337676C11.8187 0.325183 11.8645 0.312273 11.9095 0.299779C11.9141 0.29853 11.9195 0.297697 11.9241 0.296031C12.1796 0.231482 12.4872 0.18484 12.7198 0.317687C12.7252 0.320185 12.7298 0.323517 12.7344 0.326432C12.7448 0.333095 12.7552 0.339758 12.7652 0.346422C13.1212 0.582547 13.2558 0.84949 13.2024 1.17265Z" />
    <path fill="#FA9D6B" d="M19.6218 2.3354C19.4521 2.74934 18.9999 2.93175 18.5481 2.74685C17.5419 2.33456 16.5224 1.9735 15.4367 1.8265C15.097 1.78027 14.8448 1.50833 14.7944 1.17975C14.7414 0.832437 14.8782 0.565078 15.1703 0.375178C15.1958 0.358937 15.2224 0.344361 15.2562 0.325205H15.2566C15.2674 0.318958 15.2787 0.312711 15.2912 0.305631C15.2925 0.305215 15.2933 0.304382 15.2945 0.303966C15.4287 0.243581 15.6842 0.231504 15.981 0.282311C16.0018 0.286059 16.0235 0.290223 16.0448 0.294388C16.1852 0.32104 16.3257 0.351024 16.4649 0.383507C17.3881 0.596728 18.2772 0.915727 19.1495 1.28595C19.6009 1.47793 19.7931 1.91895 19.6218 2.3354Z" />
    <path fill="#FA9D6B" d="M27.4163 12.4125V12.413C27.4122 12.4205 27.4084 12.4267 27.4047 12.4334C27.3767 12.4829 27.3588 12.5158 27.3384 12.5466C27.3317 12.5566 27.3246 12.5666 27.318 12.5762L27.3175 12.5766C27.1287 12.8407 26.8241 12.9764 26.5277 12.9127C26.1876 12.8398 25.9459 12.6308 25.8954 12.2876C25.732 11.1782 25.3419 10.1417 24.9214 9.1122C24.8647 8.97227 24.8367 8.80403 24.8534 8.65452C24.8918 8.30554 25.1735 8.03485 25.5007 7.98737C25.875 7.93282 26.2072 8.11439 26.3656 8.48295C26.5981 9.02558 26.8161 9.57279 27.0012 10.1308C27.1412 10.5506 27.2625 10.9766 27.3576 11.4106C27.3851 11.5351 27.4101 11.6604 27.4326 11.7866V11.7566C27.4688 11.9753 27.4847 12.2247 27.4163 12.4125Z" />
</svg>
