 <svg width="22" height="28" viewBox="0 0 22 28" fill="none" xmlns="http://www.w3.org/2000/svg">
<path fill="#DDDDDD" d="M19.2378 0.232544H3.24998C1.85578 0.232544 0.725586 1.36273 0.725586 2.75693V5.01837C0.725586 5.16357 0.843338 5.28133 0.988543 5.28133H21.4992C21.6444 5.28133 21.7622 5.16357 21.7622 5.01837V2.75693C21.7622 1.36273 20.632 0.232544 19.2378 0.232544ZM14.6097 3.5984H14.189C13.7241 3.5984 13.3475 3.22184 13.3475 2.75693C13.3475 2.29203 13.7241 1.91547 14.189 1.91547H14.6097C15.0746 1.91547 15.4512 2.29203 15.4512 2.75693C15.4512 3.22184 15.0746 3.5984 14.6097 3.5984ZM17.9756 3.5984H17.5549C17.09 3.5984 16.7134 3.22184 16.7134 2.75693C16.7134 2.29203 17.09 1.91547 17.5549 1.91547H17.9756C18.4405 1.91547 18.8171 2.29203 18.8171 2.75693C18.8171 3.22184 18.4405 3.5984 17.9756 3.5984Z" />
<path fill="#DDDDDD" d="M0.725586 7.22719V26.3179C0.725586 26.7826 1.1023 27.1594 1.56705 27.1594H20.9207C21.3855 27.1594 21.7622 26.7826 21.7622 26.3179V7.22719C21.7622 7.08199 21.6444 6.96423 21.4992 6.96423H0.988543C0.843338 6.96423 0.725586 7.08199 0.725586 7.22719ZM11.2439 9.48862C14.9521 9.48862 17.9698 12.5026 17.9756 16.2098C18.0187 19.8218 15.0263 22.952 11.2439 22.952C7.49463 22.952 4.50586 19.887 4.51217 16.2198C4.51217 12.5084 7.53197 9.48862 11.2439 9.48862Z" />
<path fill="#DDDDDD" d="M11.2442 21.2691C13.4252 21.2691 15.2872 19.8791 15.9917 17.939C16.0628 17.7431 15.8881 17.5451 15.6853 17.5928C15.0912 17.7323 14.5576 17.7913 14.0715 17.7913C10.8617 17.7913 10.0732 15.4563 6.42952 16.7061C6.30961 16.7472 6.23567 16.869 6.25502 16.9943C6.62863 19.412 8.7233 21.2691 11.2442 21.2691Z" />
<path fill="#DDDDDD" d="M11.5754 15.4467C12.8377 15.9876 13.9454 16.4614 16.0588 15.7347C16.1786 15.6936 16.2526 15.5718 16.2332 15.4465C15.8596 13.0287 13.7649 11.1716 11.2441 11.1716C9.06356 11.1716 7.20161 12.5611 6.49668 14.5011C6.42526 14.6977 6.60107 14.8947 6.8046 14.847C8.98273 14.336 10.3451 14.9195 11.5754 15.4467Z" />
</svg> 
 
