<svg width="32" height="23" viewBox="0 0 32 23" fill="none" xmlns="http://www.w3.org/2000/svg">
    <path fill="#FA9D6B" d="M2.11815 2.35451L2.46386 2.71574H2.46386L2.11815 2.35451ZM2.11815 20.5264L1.77244 20.8877L1.77245 20.8877L2.11815 20.5264ZM29.7616 20.5275L29.4148 20.1674L29.4148 20.1674L29.7616 20.5275ZM29.7616 2.35343L29.4148 2.71357L29.4148 2.71358L29.7616 2.35343ZM1.42674 1.63205L1.77245 1.99328L1.42674 1.63205ZM30.4553 1.63313L30.1085 1.99328L30.1085 1.99328L30.4553 1.63313ZM30.4553 21.2478L30.8021 21.608H30.8021L30.4553 21.2478ZM1.42674 21.2489L1.77245 20.8877H1.77244L1.42674 21.2489ZM2.5 2.77549C2.5 2.68418 2.51194 2.64963 2.51194 2.64963C2.51171 2.65029 2.50855 2.65893 2.49996 2.67237C2.49115 2.68618 2.4791 2.70116 2.46386 2.71574L1.77245 1.99328C1.59222 2.16576 1.5 2.42517 1.5 2.77549H2.5ZM2.5 5.16312V2.77549H1.5V5.16312H2.5ZM2.5 9.94493V5.16312H1.5V9.94493H2.5ZM2.5 20.1055V9.94493H1.5V20.1055H2.5ZM2.46386 20.1652C2.4791 20.1798 2.49115 20.1948 2.49996 20.2086C2.50855 20.222 2.51171 20.2307 2.51194 20.2313C2.51194 20.2313 2.5 20.1968 2.5 20.1055H1.5C1.5 20.4558 1.59222 20.7152 1.77244 20.8877L2.46386 20.1652ZM2.58978 20.1484C2.48254 20.1484 2.43189 20.1353 2.41797 20.1309C2.4067 20.1272 2.43002 20.1328 2.46385 20.1652L1.77245 20.8877C1.95314 21.0606 2.22465 21.1484 2.58978 21.1484V20.1484ZM29.2962 20.1484H2.58978V21.1484H29.2962V20.1484ZM29.4148 20.1674C29.4489 20.1345 29.473 20.1283 29.4633 20.1314C29.4508 20.1355 29.4018 20.1484 29.2962 20.1484V21.1484C29.6592 21.1484 29.929 21.0606 30.1085 20.8877L29.4148 20.1674ZM29.3792 20.1055C29.3792 20.1508 29.3763 20.1827 29.3732 20.2036C29.3701 20.2244 29.367 20.2332 29.3671 20.2332C29.3672 20.2328 29.3702 20.2244 29.3787 20.211C29.3874 20.1973 29.3994 20.1822 29.4148 20.1674L30.1085 20.8877C30.2876 20.7152 30.3792 20.4557 30.3792 20.1055H29.3792ZM29.3792 9.94493V20.1055H30.3792V9.94493H29.3792ZM29.3792 5.16312V9.94493H30.3792V5.16312H29.3792ZM29.3792 2.77549V5.16312H30.3792V2.77549H29.3792ZM29.4148 2.71358C29.3994 2.69873 29.3874 2.68364 29.3787 2.66993C29.3702 2.65658 29.3672 2.64813 29.3671 2.64777C29.367 2.64772 29.3701 2.65657 29.3732 2.67738C29.3763 2.69827 29.3792 2.73015 29.3792 2.77549H30.3792C30.3792 2.42522 30.2876 2.16578 30.1085 1.99328L29.4148 2.71358ZM29.2962 2.73254C29.4018 2.73254 29.4508 2.74548 29.4633 2.74952C29.473 2.75266 29.4489 2.7464 29.4148 2.71357L30.1085 1.99328C29.9289 1.82039 29.6592 1.73254 29.2962 1.73254V2.73254ZM2.58978 2.73254H29.2962V1.73254H2.58978V2.73254ZM2.46386 2.71574C2.43002 2.74812 2.4067 2.75371 2.41797 2.75009C2.43189 2.74562 2.48254 2.73254 2.58978 2.73254V1.73254C2.22466 1.73254 1.95314 1.82035 1.77245 1.99328L2.46386 2.71574ZM2.58978 0.732544C2.08379 0.732544 1.51788 0.852744 1.08103 1.27082L1.77245 1.99328C1.95372 1.81979 2.22581 1.73254 2.58978 1.73254V0.732544ZM29.2962 0.732544H2.58978V1.73254H29.2962V0.732544ZM30.8021 1.27299C30.3665 0.85349 29.8014 0.732544 29.2962 0.732544V1.73254C29.658 1.73254 29.9283 1.8198 30.1085 1.99328L30.8021 1.27299ZM31.3792 2.77549C31.3792 2.26482 31.2449 1.69934 30.8021 1.27299L30.1085 1.99328C30.2885 2.16666 30.3792 2.42694 30.3792 2.77549H31.3792ZM31.3792 5.16312V2.77549H30.3792V5.16312H31.3792ZM31.3792 9.94493V5.16312H30.3792V9.94493H31.3792ZM31.3792 20.1055V9.94493H30.3792V20.1055H31.3792ZM30.8021 21.608C31.2449 21.1816 31.3792 20.6161 31.3792 20.1055H30.3792C30.3792 20.454 30.2885 20.7143 30.1085 20.8877L30.8021 21.608ZM29.2962 22.1484C29.8014 22.1484 30.3665 22.0275 30.8021 21.608L30.1085 20.8877C29.9283 21.0611 29.658 21.1484 29.2962 21.1484V22.1484ZM2.58978 22.1484H29.2962V21.1484H2.58978V22.1484ZM1.08103 21.6101C1.51788 22.0282 2.08379 22.1484 2.58978 22.1484V21.1484C2.22581 21.1484 1.95372 21.0612 1.77245 20.8877L1.08103 21.6101ZM0.5 20.1055C0.5 20.6178 0.635857 21.1841 1.08103 21.6101L1.77244 20.8877C1.59129 20.7143 1.5 20.454 1.5 20.1055H0.5ZM0.5 9.94493V20.1055H1.5V9.94493H0.5ZM0.5 5.16312V9.94493H1.5V5.16312H0.5ZM0.5 2.77549V5.16312H1.5V2.77549H0.5ZM1.08103 1.27082C0.635858 1.69686 0.5 2.26315 0.5 2.77549H1.5C1.5 2.42693 1.59129 2.16665 1.77245 1.99328L1.08103 1.27082ZM5.08252 12.9396C4.53023 12.9396 4.08252 13.3873 4.08252 13.9396H5.08252V12.9396ZM11.7574 12.9396H5.08252V13.9396H11.7574V12.9396ZM12.7574 13.9396C12.7574 13.3873 12.3097 12.9396 11.7574 12.9396V13.9396H12.7574ZM11.7574 14.9396C12.3097 14.9396 12.7574 14.4919 12.7574 13.9396H11.7574V14.9396ZM5.08252 14.9396H11.7574V13.9396H5.08252V14.9396ZM4.08252 13.9396C4.08252 14.4919 4.53023 14.9396 5.08252 14.9396V13.9396H4.08252ZM5.08252 15.2026C4.53023 15.2026 4.08252 15.6503 4.08252 16.2026H5.08252V15.2026ZM7.21441 15.2026H5.08252V16.2026H7.21441V15.2026ZM8.21441 16.2026C8.21441 15.6503 7.76669 15.2026 7.21441 15.2026V16.2026H8.21441ZM7.21441 17.2026C7.76669 17.2026 8.21441 16.7549 8.21441 16.2026H7.21441V17.2026ZM5.08252 17.2026H7.21441V16.2026H5.08252V17.2026ZM4.08252 16.2026C4.08252 16.7549 4.53023 17.2026 5.08252 17.2026V16.2026H4.08252Z" />
</svg>
