<svg width="26" height="21" viewBox="0 0 26 21" fill="none" xmlns="http://www.w3.org/2000/svg">
<path d="M24.7504 0.177648H25.1712V11.1167H21.8053V3.12277C21.8062 2.34194 22.1168 1.59335 22.6689 1.04122C23.221 0.489096 23.9696 0.178525 24.7504 0.177648ZM23.4882 19.5313C23.4882 19.7545 23.5769 19.9685 23.7347 20.1263C23.8925 20.2841 24.1065 20.3728 24.3297 20.3728C24.5529 20.3728 24.7669 20.2841 24.9247 20.1263C25.0825 19.9685 25.1712 19.7545 25.1712 19.5313V11.9581H23.4882V19.5313ZM3.29312 7.75082V11.1167H4.13458V7.75082H3.29312ZM13.3907 4.8057C12.2257 4.8057 11.0869 5.15115 10.1182 5.79838C9.14959 6.44561 8.39462 7.36554 7.9488 8.44184C7.50298 9.51814 7.38634 10.7025 7.61361 11.8451C7.84089 12.9877 8.40188 14.0372 9.22565 14.861C10.0494 15.6847 11.099 16.2457 12.2416 16.473C13.3841 16.7003 14.5685 16.5836 15.6448 16.1378C16.7211 15.692 17.641 14.937 18.2882 13.9684C18.9355 12.9997 19.2809 11.8609 19.2809 10.6959C19.2792 9.1343 18.658 7.63712 17.5538 6.53286C16.4495 5.42861 14.9523 4.80747 13.3907 4.8057ZM2.87238 19.5313C2.87238 19.7545 2.96104 19.9685 3.11884 20.1263C3.27665 20.2841 3.49068 20.3728 3.71385 20.3728C3.93702 20.3728 4.15105 20.2841 4.30885 20.1263C4.46666 19.9685 4.55531 19.7545 4.55531 19.5313V11.9581H2.87238V19.5313ZM4.13458 4.8057V1.41323C4.13458 1.30165 4.09025 1.19463 4.01135 1.11573C3.93245 1.03683 3.82543 0.992501 3.71385 0.992501C3.60226 0.992501 3.49525 1.03683 3.41635 1.11573C3.33744 1.19463 3.29312 1.30165 3.29312 1.41323V4.8057C3.29312 4.91728 3.33744 5.0243 3.41635 5.1032C3.49525 5.1821 3.60226 5.22643 3.71385 5.22643C3.82543 5.22643 3.93245 5.1821 4.01135 5.1032C4.09025 5.0243 4.13458 4.91728 4.13458 4.8057ZM22.561 11.9581C22.2983 13.8657 21.4473 15.6439 20.1264 17.0451C18.8055 18.4462 17.0805 19.4006 15.1917 19.7752C13.3029 20.1498 11.3443 19.9261 9.58862 19.1351C7.83295 18.3442 6.36765 17.0254 5.39678 15.3625V11.5374C5.39678 11.4258 5.35245 11.3188 5.27355 11.2399C5.19464 11.161 5.08763 11.1167 4.97604 11.1167V6.88979C4.88434 6.90271 4.79186 6.90925 4.69925 6.90936H2.72834C2.4613 6.90939 2.19707 6.85484 1.95188 6.74906C1.70668 6.64327 1.4857 6.48849 1.30249 6.29422C1.11928 6.09994 0.977708 5.87027 0.886472 5.6193C0.795237 5.36833 0.756259 5.10136 0.771933 4.83478L1.097 0.571769C1.10004 0.516283 1.11403 0.461947 1.13818 0.4119C1.16233 0.361853 1.19615 0.317085 1.2377 0.280182C1.27925 0.243279 1.32769 0.214972 1.38024 0.196895C1.43279 0.178818 1.48839 0.17133 1.54385 0.174862C1.59931 0.178394 1.65351 0.192878 1.70334 0.217475C1.75317 0.242073 1.79763 0.276297 1.83416 0.318173C1.87069 0.360049 1.89856 0.408746 1.91617 0.461453C1.93377 0.51416 1.94076 0.569832 1.93673 0.625254L1.61182 4.88622C1.60317 5.03817 1.62564 5.19029 1.67784 5.33326C1.73005 5.47623 1.81089 5.60704 1.91542 5.71767C2.01995 5.8283 2.14597 5.91643 2.28575 5.97665C2.42553 6.03687 2.57613 6.06792 2.72834 6.06789H4.69936C4.85172 6.06789 5.00246 6.03675 5.14235 5.97638C5.28224 5.91602 5.40831 5.8277 5.51284 5.71685C5.61736 5.606 5.69812 5.47496 5.75017 5.33177C5.80222 5.18858 5.82445 5.03626 5.81551 4.88416L5.49076 0.625254C5.4847 0.514489 5.52263 0.405813 5.5963 0.322876C5.66997 0.239938 5.77341 0.189451 5.88412 0.182399C5.99482 0.175348 6.10384 0.212303 6.18743 0.285224C6.27103 0.358145 6.32244 0.46113 6.33048 0.571769L6.62642 4.37829C7.5662 3.37185 8.71872 2.58782 9.99997 2.08333C11.2812 1.57884 12.6589 1.36662 14.0326 1.46213C15.4062 1.55765 16.7413 1.95849 17.9404 2.63545C19.1395 3.3124 20.1724 4.2484 20.9639 5.37521V11.5374C20.9639 11.649 21.0082 11.756 21.0871 11.8349C21.166 11.9138 21.273 11.9581 21.3846 11.9581H22.561ZM20.1224 10.6959C20.1224 9.36454 19.7276 8.06303 18.9879 6.95601C18.2482 5.84898 17.1969 4.98616 15.9668 4.47666C14.7367 3.96715 13.3832 3.83384 12.0774 4.09358C10.7716 4.35333 9.57209 4.99446 8.63064 5.93591C7.6892 6.87735 7.04806 8.07683 6.78832 9.38265C6.52857 10.6885 6.66188 12.042 7.17139 13.2721C7.6809 14.5021 8.54372 15.5535 9.65074 16.2932C10.7578 17.0328 12.0593 17.4277 13.3907 17.4277C15.1754 17.4256 16.8865 16.7157 18.1485 15.4537C19.4105 14.1917 20.1204 12.4807 20.1224 10.6959Z" fill="#FA9D6B"/>
</svg>
