 <svg width="28" height="19" viewBox="0 0 28 19" fill="none" xmlns="http://www.w3.org/2000/svg">
    <path fill="#FA9D6B" d="M25.5752 6.5102C25.5571 6.48932 25.5417 6.46898 25.5203 6.44865L24.5767 5.53805C25.3593 5.36054 26.2017 4.70493 26.2017 4.03228C26.2017 3.24862 25.1142 2.97055 24.186 2.97055C23.2155 2.97055 23.1028 3.63551 23.0913 4.10537L20.6568 1.75824C20.1622 1.2686 19.2241 0.883362 18.5229 0.883362H13.7813H13.7802H9.03764C8.33696 0.883362 7.39943 1.2686 6.90428 1.75824L4.47033 4.10537C4.45769 3.63551 4.34503 2.97055 3.37563 2.97055C2.44634 2.97055 1.35933 3.24862 1.35933 4.03228C1.35933 4.70493 2.20234 5.36054 2.9849 5.53805L2.04132 6.44865C2.01989 6.46898 2.00505 6.48932 1.98637 6.5102C0.976842 7.37299 0.317383 8.97328 0.317383 10.1345V13.5851C0.317383 14.4226 0.647662 15.1826 1.18127 15.7492V17.0874C1.18127 17.8699 1.83634 18.508 2.64198 18.508H4.40823C5.21387 18.508 5.86838 17.871 5.86838 17.0874V16.745H13.7802H13.7813H21.6927V17.0874C21.6927 17.871 22.3466 18.508 23.1534 18.508H24.9191C25.7253 18.508 26.3792 17.8699 26.3792 17.0874V15.7492C26.9134 15.1826 27.2431 14.4226 27.2431 13.5851V10.1345C27.2442 8.97328 26.5848 7.37299 25.5752 6.5102ZM7.7984 2.80129C8.14077 2.51607 8.73923 2.29955 9.03764 2.29955H13.7802H13.7813H18.524C18.8224 2.29955 19.4208 2.51607 19.7632 2.80129L22.9555 5.89525H13.7813H13.7802H4.60662L7.7984 2.80129ZM1.41264 9.61241C1.41264 8.7628 2.07759 8.07312 2.89862 8.07312C3.7191 8.07312 6.40035 9.64703 6.40035 10.4966C6.40035 11.3462 3.7191 11.1495 2.89862 11.1495C2.07759 11.1495 1.41264 10.4626 1.41264 9.61241ZM5.86893 15.2321H5.58592H5.3029L3.62402 15.2348C3.15801 15.0898 2.82937 14.9205 2.59691 14.7386C2.47931 14.6468 2.38918 14.5512 2.31884 14.4561C2.24795 14.36 2.19629 14.2654 2.16277 14.1709C1.95394 13.5807 2.38534 13.0383 2.38534 13.0383H5.25069L7.16092 15.231L5.86893 15.2321ZM17.9008 15.2332H13.7813H13.7802H9.66083C8.80188 15.2332 8.1045 14.5358 8.1045 13.6774H13.7802H13.7813H19.4571C19.4571 14.5369 18.7597 15.2332 17.9008 15.2332ZM18.2624 12.6157H13.7813H13.7802H9.29922C8.36499 12.6157 7.60661 11.4638 7.60661 10.0433H13.7802H13.7813H19.955C19.955 11.4644 19.1966 12.6157 18.2624 12.6157ZM25.3994 14.172C25.3653 14.2665 25.3136 14.3611 25.2428 14.4567C25.173 14.5518 25.0828 14.6474 24.9647 14.7392C24.7328 14.9211 24.4036 15.0914 23.9376 15.2354L22.2587 15.2327H21.9757H21.6927H20.3996L22.3109 13.0399H25.1757C25.1757 13.0394 25.6077 13.5807 25.3994 14.172ZM24.663 11.1495C23.8431 11.1495 21.1618 11.3451 21.1618 10.4966C21.1618 9.64813 23.8431 8.07312 24.663 8.07312C25.484 8.07312 26.149 8.7628 26.149 9.61241C26.149 10.4615 25.484 11.1495 24.663 11.1495Z" />
</svg> 
