<svg width="27" height="28" viewBox="0 0 27 28" fill="none" xmlns="http://www.w3.org/2000/svg">
<g clip-path="url(#clip0_102_7386)">
<path d="M26.0021 19.5057C25.3698 18.8656 24.5066 18.5063 23.6068 18.5086C23.299 18.5072 22.9923 18.5493 22.6962 18.6337C22.582 18.6659 22.4697 18.7037 22.3593 18.7474C22.3233 18.7617 22.289 18.7791 22.2535 18.7953C22.1818 18.8268 22.109 18.8585 22.0418 18.8917C22.0009 18.9133 21.9614 18.9399 21.9219 18.9601C21.8608 18.9951 21.8007 19.0308 21.7419 19.0698C21.7015 19.0966 21.6625 19.125 21.6235 19.1535C21.5687 19.1934 21.5152 19.2343 21.4628 19.2778C21.4252 19.309 21.3876 19.3412 21.3511 19.3739C21.303 19.4192 21.2548 19.4662 21.2066 19.5144C21.1725 19.5492 21.1385 19.5842 21.1056 19.6209C21.0576 19.6723 21.0156 19.7261 20.9723 19.7807C20.9434 19.8171 20.9131 19.8537 20.8856 19.8918C20.841 19.9534 20.8001 20.0178 20.7592 20.0843C20.7376 20.1188 20.7143 20.1522 20.6936 20.1877C20.6894 20.1954 20.6859 20.2036 20.6816 20.2114L21.8665 21.3962H26.9414C26.838 20.6821 26.5088 20.0196 26.0021 19.5057Z" fill="#FA9D6B"/>
<path d="M17.5055 26.564L15.095 24.1534C14.5674 24.2383 14.034 24.282 13.4996 24.2839C7.65203 24.2839 2.91174 19.5436 2.91174 13.696C2.91174 7.84844 7.65203 3.10816 13.4996 3.10816C19.3472 3.10816 24.0875 7.84844 24.0875 13.696C24.0896 15.02 23.8407 16.3322 23.354 17.5635C23.4382 17.5586 23.5204 17.5461 23.6062 17.5461C23.8104 17.5478 24.0144 17.5638 24.2165 17.5943C24.2602 17.5999 24.3034 17.6063 24.3474 17.6136C24.5412 17.646 24.7327 17.6918 24.9205 17.7506C24.9503 17.7597 24.9783 17.7717 25.0077 17.7818C25.1769 17.8396 25.3425 17.908 25.5033 17.9865C25.535 18.0023 25.5681 18.0159 25.5996 18.0347C25.7738 18.1256 25.9418 18.2283 26.102 18.3421C26.1159 18.3517 26.1314 18.3585 26.1453 18.3686C26.6371 17.0252 26.91 15.6114 26.9539 14.1815H25.5312C25.2655 14.1815 25.05 13.966 25.05 13.7002C25.05 13.4345 25.2655 13.219 25.5312 13.219H26.9631C26.7048 6.15813 21.0417 0.493151 13.9809 0.232544V1.66436C13.9809 1.93013 13.7654 2.14562 13.4996 2.14562C13.2338 2.14562 13.0183 1.93013 13.0183 1.66436V0.232544C5.95914 0.492916 0.296505 6.15555 0.0361328 13.2147H1.46795C1.73372 13.2147 1.94921 13.4302 1.94921 13.696C1.94921 13.9618 1.73372 14.1773 1.46795 14.1773H0.0361328C0.296505 21.2365 5.95914 26.8991 13.0183 27.1595V25.7277C13.0183 25.4619 13.2338 25.2464 13.4996 25.2464C13.7654 25.2464 13.9809 25.4619 13.9809 25.7277V27.1536C15.177 27.1169 16.3625 26.9186 17.5055 26.564Z" fill="#FA9D6B"/>
<path d="M22.8047 22.3588C22.8221 22.3804 22.8359 22.4044 22.8529 22.4262C22.8846 22.4676 22.914 22.5108 22.9443 22.5536C23.0021 22.6358 23.0559 22.7202 23.1055 22.8074C23.1325 22.8553 23.1588 22.9035 23.1835 22.9517C23.2317 23.0445 23.2721 23.1399 23.3104 23.2369C23.3278 23.2818 23.3475 23.3255 23.3635 23.3709C23.414 23.5149 23.4547 23.662 23.4852 23.8117C23.5165 23.9628 23.5369 24.1158 23.5463 24.2697C23.5491 24.3113 23.5506 24.3522 23.552 24.3936C23.5564 24.5233 23.5531 24.653 23.5419 24.7825C23.5395 24.8083 23.5419 24.8344 23.5367 24.8603C23.5231 24.99 23.5017 25.1185 23.4723 25.2454C23.5174 25.2459 23.5618 25.2464 23.6055 25.2464C25.2794 25.2442 26.6988 24.0152 26.9401 22.3588H22.8047Z" fill="#FA9D6B"/>
<path d="M14.7467 16.6318C13.7733 16.6309 12.8952 17.2162 12.522 18.1153C12.1486 19.0142 12.3537 20.0495 13.0416 20.7383L15.4253 23.1221L17.1361 21.4137L18.8306 19.7215L16.4471 17.3377C15.9983 16.8835 15.3854 16.629 14.7467 16.6318Z" fill="#FA9D6B"/>
<path d="M21.8889 26.1864C22.0985 25.9798 22.266 25.7347 22.3826 25.4645C22.3878 25.4518 22.3946 25.4403 22.4009 25.4283C22.4282 25.3649 22.4489 25.2988 22.4698 25.2359C22.4865 25.1877 22.5062 25.1362 22.5177 25.0852C22.5361 25.0154 22.5457 24.9442 22.5572 24.8735C22.565 24.8253 22.5769 24.7771 22.5819 24.729C22.588 24.6491 22.5901 24.5687 22.588 24.4883C22.588 24.4484 22.592 24.4089 22.588 24.369C22.5816 24.2477 22.5654 24.1269 22.5401 24.008C22.4505 23.5444 22.2233 23.1186 21.8877 22.786L19.5084 20.4067L17.7854 22.1274L16.1055 23.8026C17.1949 24.8874 18.5955 26.2778 18.7226 26.3899C19.6781 27.1311 21.0361 27.0439 21.8889 26.1864Z" fill="#FA9D6B"/>
<path d="M19.8621 19.3918L19.98 19.5097C20.0153 19.4552 20.0548 19.4047 20.0916 19.3523C20.1154 19.3196 20.1375 19.2863 20.1614 19.2559C20.1739 19.2393 20.1861 19.2214 20.199 19.2049C20.2265 19.1699 20.2564 19.1377 20.2846 19.1034C20.3327 19.0452 20.3809 18.9855 20.4333 18.9298L20.4498 18.9124C20.482 18.8778 20.5172 18.8459 20.5504 18.8127C20.6028 18.7603 20.6552 18.7075 20.7101 18.6579L20.7616 18.6121C20.7877 18.589 20.8154 18.5688 20.842 18.5467C20.8934 18.5033 20.9449 18.4605 20.999 18.4201C21.033 18.394 21.0687 18.3695 21.1038 18.3444C21.139 18.3195 21.1606 18.304 21.1895 18.2842C21.2285 18.2584 21.268 18.2328 21.3073 18.2083C21.3467 18.1837 21.4008 18.1524 21.4478 18.1252C21.4821 18.1059 21.5148 18.0836 21.5495 18.065H21.5524C21.5794 18.0504 21.6076 18.0384 21.6346 18.0246C21.6828 17.9999 21.731 17.9764 21.7824 17.9531C21.8339 17.9301 21.8877 17.9052 21.9417 17.8824L22.0158 17.8526C22.0543 17.8373 22.0938 17.8237 22.1328 17.8093C22.1626 17.7987 22.1911 17.7858 22.2209 17.7762C22.8216 16.5002 23.1306 15.1062 23.1256 13.696C23.1256 8.37998 18.8161 4.07068 13.5003 4.07068C8.1843 4.07068 3.875 8.37998 3.875 13.696C3.875 19.0118 8.1843 23.3213 13.5003 23.3213C13.7471 23.3213 13.9926 23.3117 14.2351 23.2929L12.3611 21.4188C11.3981 20.4549 11.1107 19.0054 11.6328 17.747C12.1552 16.4884 13.3842 15.6683 14.7467 15.6692C15.6416 15.6655 16.5002 16.022 17.1291 16.6586L19.8362 19.3657L19.8621 19.3918ZM19.2755 8.57973L13.8411 14.0358C13.6531 14.2236 13.3485 14.2236 13.1605 14.0358L9.75077 10.6399C9.56794 10.4514 9.56982 10.1514 9.75523 9.96525C9.94041 9.77913 10.2405 9.77584 10.4299 9.95796L13.5003 13.0155L18.5936 7.9006C18.782 7.71777 19.0821 7.71965 19.2682 7.90483C19.4543 8.09024 19.4574 8.39032 19.2755 8.57973Z" fill="#FA9D6B"/>
</g>
<defs>
<clipPath id="clip0_102_7386">
<rect width="26.9268" height="26.9268" fill="white" transform="translate(0.0361328 0.232544)"/>
</clipPath>
</defs>
</svg>

