<svg width="22" height="28" viewBox="0 0 22 28" fill="none" xmlns="http://www.w3.org/2000/svg">
    <path fill="#DDDDDD" d="M15.4926 2.27313H13.5224C13.2765 2.26552 13.0653 2.09649 13.0039 1.85838C12.8172 0.888439 11.9518 0.199005 10.9647 0.23387C9.97155 0.21647 9.11037 0.917085 8.92539 1.89298C8.86148 2.12454 8.64693 2.28186 8.40691 2.2732H6.50586V5.72963H15.4926V2.27313Z" />
    <path fill="#DDDDDD" d="M21.0232 25.5694V5.76411C21.0254 4.98146 20.3925 4.34528 19.6099 4.34317C19.574 4.3431 19.5382 4.34436 19.5024 4.34694H16.5298V6.10972C16.5298 6.38626 16.357 6.76648 16.0805 6.76648H5.88406C5.60752 6.76648 5.46932 6.38626 5.46932 6.10972V4.34701H2.49677C1.71623 4.28971 1.03699 4.87607 0.979758 5.65667C0.977112 5.69246 0.975855 5.72832 0.975987 5.76418V25.5695C0.956669 26.4283 1.63724 27.1402 2.49604 27.1594C2.4963 27.1594 2.49657 27.1594 2.49683 27.1594H19.5025C20.3613 27.1405 21.0422 26.429 21.0233 25.5702C21.0232 25.57 21.0232 25.5697 21.0232 25.5694ZM8.19986 21.007L5.50385 23.5302C5.41765 23.6333 5.29241 23.6959 5.15824 23.703C5.01382 23.6973 4.87733 23.6352 4.77803 23.5302L3.36092 22.0785C3.17257 21.8675 3.18799 21.5446 3.39546 21.3526C3.59704 21.155 3.9197 21.155 4.12128 21.3526L5.15818 22.4587L7.50858 20.2465C7.74423 20.0839 8.06715 20.1431 8.22977 20.3787C8.36248 20.571 8.35018 20.8282 8.19986 21.007ZM8.19986 15.4767L5.50385 17.9999C5.41765 18.103 5.29241 18.1656 5.15824 18.1727C5.01382 18.167 4.87733 18.1049 4.77803 17.9999L3.36092 16.5482C3.17257 16.3372 3.18799 16.0143 3.39546 15.8223C3.59704 15.6247 3.9197 15.6247 4.12128 15.8223L5.15818 16.9284L7.50858 14.7162C7.74423 14.5536 8.06715 14.6128 8.22977 14.8484C8.36248 15.0407 8.35018 15.2979 8.19986 15.4767ZM8.19986 9.94637L5.50385 12.4696C5.41765 12.5727 5.29241 12.6353 5.15824 12.6424C5.01382 12.6367 4.87733 12.5746 4.77803 12.4696L3.36092 11.0179C3.17257 10.807 3.18799 10.484 3.39546 10.292C3.59704 10.0944 3.9197 10.0944 4.12128 10.292L5.15818 11.3981L7.50858 9.18595C7.74423 9.02333 8.06715 9.08247 8.22977 9.31813C8.36248 9.51039 8.35018 9.76761 8.19986 9.94637ZM18.2581 23.0117H10.3083C10.0219 23.0117 9.78978 22.7795 9.78978 22.4932C9.78978 22.2069 10.0219 21.9747 10.3083 21.9747H18.258C18.5444 21.9747 18.7765 22.2069 18.7765 22.4932C18.7765 22.7795 18.5444 23.0117 18.2581 23.0117ZM18.2581 17.4814H10.3083C10.0219 17.4814 9.78978 17.2492 9.78978 16.9629C9.78978 16.6766 10.0219 16.4444 10.3083 16.4444H18.258C18.5444 16.4444 18.7765 16.6766 18.7765 16.9629C18.7765 17.2492 18.5444 17.4814 18.2581 17.4814ZM18.2581 11.9511H10.3083C10.0219 11.9511 9.78978 11.7189 9.78978 11.4326C9.78978 11.1463 10.0219 10.9141 10.3083 10.9141H18.258C18.5444 10.9141 18.7765 11.1463 18.7765 11.4326C18.7765 11.719 18.5444 11.9511 18.2581 11.9511Z"/>
</svg>

