<svg width="30" height="25" viewBox="0 0 30 25" fill="none" xmlns="http://www.w3.org/2000/svg">
<path fill="#FA9D6B" d="M19.9932 6.81531V6.8157L19.9936 6.81531C19.9943 6.81107 19.9955 6.80644 19.9967 6.80182C19.9951 6.80683 19.994 6.81107 19.9932 6.81531ZM17.2316 19.7087C17.2312 19.7099 17.2309 19.7107 17.2305 19.7118H18.2898C18.3009 19.7118 18.3121 19.7107 18.3225 19.7087H17.2316Z" />
<path fill="#FA9D6B" d="M27.5791 12.017C27.5822 12.0177 27.5849 12.0177 27.588 12.0177C27.6153 12.0177 27.6431 12.0181 27.6705 12.0181C27.6308 12.0174 27.5976 12.017 27.5791 12.017Z" />
<path fill="#FA9D6B" d="M29.8874 10.0491C29.84 9.95001 29.6985 9.89604 29.5983 9.8228C28.4796 9.01022 27.361 8.19725 26.2419 7.38466C25.9574 7.17804 25.673 6.97143 25.3885 6.76481C24.8141 6.34696 24.2394 5.92949 23.6631 5.51394C23.4349 5.34934 23.2063 5.18474 22.9773 5.02092C22.9326 4.98892 22.8887 4.955 22.8451 4.92069C22.7025 4.80852 22.5637 4.69018 22.4053 4.6019C22.3405 4.56567 22.2727 4.53483 22.1998 4.51132C22.1848 4.50631 22.174 4.4878 22.1616 4.47547C22.0911 4.40724 22.0271 4.32976 21.9489 4.27271C21.8371 4.1906 21.7249 4.10888 21.6127 4.02716L20.8452 3.47091L20.7126 3.37493C20.575 3.27548 20.4374 3.17564 20.3002 3.07619C20.0774 2.91429 19.8546 2.75277 19.6314 2.59087L19.5693 2.54577C19.3754 2.40469 19.1815 2.26399 18.9869 2.1229C18.9722 2.11211 18.9522 2.11211 18.9375 2.1229C18.0031 2.80057 17.0707 3.47708 16.1351 4.15591L15.9975 4.25575C15.6876 4.48048 15.3776 4.7056 15.0666 4.9311C15.0415 4.94922 15.0438 4.98777 15.0716 5.00203C15.2705 5.10534 15.4378 5.37517 15.4405 5.62342C15.442 5.77491 15.4054 5.91676 15.3106 6.03164C15.2797 6.06903 15.218 6.03087 15.2396 5.98731C15.24 5.98692 15.24 5.98654 15.2404 5.98615C15.4015 5.66698 15.2743 5.24873 14.9301 5.12153C14.8915 5.10765 14.8306 5.10842 14.799 5.13001C14.7778 5.14465 14.757 5.16007 14.737 5.17665C14.7285 5.1832 14.72 5.19014 14.7115 5.19746C14.7023 5.20517 14.693 5.21327 14.6838 5.22136C14.6564 5.24565 14.629 5.2707 14.6017 5.29499C14.6013 5.29499 14.6009 5.29576 14.6009 5.29576C14.5916 5.30386 14.5824 5.31195 14.5731 5.32005C14.5065 5.36939 14.4398 5.41873 14.3735 5.46807C14.2732 5.539 14.173 5.60993 14.0724 5.68162C14.0716 5.68201 14.0705 5.68278 14.0697 5.68317C14.0215 5.71208 13.9733 5.74137 13.9248 5.77067C13.8801 5.79881 13.833 5.82425 13.7902 5.85547L12.6145 6.70776C11.6886 7.37965 10.7623 8.05115 9.83487 8.72149C9.7728 8.76621 9.75777 8.80553 9.77319 8.87838C9.96824 9.7989 10.1587 10.7202 10.3545 11.6403C10.393 11.82 10.4285 12.005 10.5014 12.1719C10.6012 12.3997 10.7974 12.5481 11.0083 12.6746C11.8594 13.1838 12.7117 13.6907 13.5586 14.2061C14.0786 14.5221 14.3577 14.989 14.3885 15.6011C14.3904 15.6416 14.4155 15.6886 14.444 15.7191C14.6452 15.9353 14.8017 16.1785 14.9012 16.4569C14.9598 16.6203 15.0022 16.7899 15.0696 16.9491C15.1984 17.254 15.3784 17.5817 15.5781 17.8831C15.6012 17.9178 15.6552 17.9016 15.6552 17.86V16.9379C15.6552 16.9345 15.6552 16.931 15.6556 16.9275C15.661 16.83 15.7415 16.7525 15.8406 16.7525H18.2475C18.3728 16.7525 18.4753 16.8551 18.4753 16.9803V19.6671C18.4753 19.6902 18.4564 19.7091 18.4333 19.7091H18.3223C18.3119 19.711 18.3007 19.7122 18.2895 19.7122H17.3443C17.3262 19.7612 17.3258 19.7619 17.3081 19.8109C17.8216 20.2492 18.335 20.6882 18.8519 21.1296C18.8693 21.1443 18.8716 21.1705 18.8573 21.1882C18.6897 21.394 18.5216 21.5929 18.3635 21.7992C17.995 22.2799 17.5814 22.7131 17.0568 23.0246C16.8024 23.1757 16.5406 23.3133 16.287 23.4498C16.2484 23.4706 16.2635 23.5288 16.307 23.5288H27.4473C27.4704 23.5288 27.4893 23.5099 27.4893 23.4868V23.4494C27.4878 22.3863 27.4855 21.3227 27.4839 20.2592C27.4839 19.8533 27.4835 19.4474 27.4832 19.0415C27.4828 18.5053 27.4885 17.9687 27.4893 17.4325V15.9947C27.4893 15.6909 27.4889 15.3875 27.4889 15.0842C27.4889 14.1174 27.4901 13.1502 27.4882 12.1835V12.1804C27.4885 12.0563 27.5024 12.0173 27.5768 12.0173H27.5795C27.598 12.0173 27.6312 12.0177 27.6709 12.0185H27.6767C27.7888 12.0189 27.901 12.0192 28.0132 12.0192C28.6045 12.0212 29.1954 12.0208 29.7868 12.0208H29.8639C29.887 12.0208 29.9059 12.0019 29.9059 11.9788V11.8785C29.9059 11.3982 29.9063 10.9179 29.9055 10.4376C29.9051 10.3062 29.939 10.1566 29.8874 10.0491ZM18.4757 15.5521C18.4757 15.6778 18.3736 15.78 18.2479 15.78H15.883C15.7573 15.78 15.6556 15.6782 15.6556 15.5525V13.0477C15.6556 12.922 15.7573 12.8203 15.883 12.8203H18.2479C18.3732 12.8203 18.4757 12.9228 18.4757 13.0481V15.5521ZM19.9933 6.8157V6.81531C19.9941 6.81107 19.9953 6.80683 19.9968 6.80182C19.9972 6.80722 19.9972 6.81338 19.9972 6.81955C19.9941 6.82032 19.9906 6.82109 19.9876 6.82148C19.9895 6.81955 19.991 6.81762 19.9933 6.8157ZM19.449 13.0327C19.449 12.9163 19.5435 12.8218 19.6599 12.8218H22.0961C22.189 12.8218 22.2646 12.8974 22.2646 12.9906V15.5733C22.2646 15.6898 22.1705 15.7838 22.0541 15.7838H19.6595C19.5431 15.7838 19.449 15.6898 19.449 15.5733V13.0327ZM22.2692 19.5349C22.2692 19.6262 22.1952 19.7006 22.1034 19.7006H19.6568C19.5423 19.7006 19.4494 19.6077 19.4494 19.4933V16.9491C19.4494 16.8342 19.5423 16.7413 19.6572 16.7413H22.1034C22.1952 16.7413 22.2692 16.8157 22.2692 16.9071V19.5349Z" />
<path fill="#FA9D6B" d="M14.7433 18.949C15.4356 19.8132 16.1992 20.6081 17.0766 21.3305C17.077 21.3305 17.077 21.3308 17.0766 21.3312C16.937 21.4596 16.8125 21.5891 16.673 21.6994C16.1784 22.0902 15.6075 22.3362 15.0181 22.5409C14.7668 22.628 14.5074 22.6912 14.2533 22.7698C14.177 22.7933 14.1234 22.7795 14.0625 22.7267C13.4805 22.2236 13.0152 21.6265 12.6301 20.9639C12.228 20.2716 11.9312 19.5364 11.7481 18.7562C11.7373 18.7096 11.7208 18.6641 11.6996 18.6206C11.9559 20.1717 12.3202 21.6878 13.1474 23.0786C13.1474 23.079 13.1474 23.079 13.147 23.0794C12.9612 23.1642 12.7762 23.2586 12.5838 23.3345C12.107 23.5223 11.6128 23.6526 11.1105 23.7528C11.0755 23.7597 11.0215 23.7505 10.9984 23.727C10.5701 23.2898 10.2004 22.8111 9.97107 22.2363C9.96182 22.2132 9.95411 22.1897 9.9464 22.1662C9.93908 22.1442 9.93253 22.1218 9.91595 22.1014C9.95411 22.7502 10.0073 23.3962 10.1742 24.0388C10.1742 24.0392 10.1742 24.0392 10.1738 24.0392C9.33311 24.3056 8.48467 24.5257 7.60425 24.6012C7.65667 24.5762 7.72374 24.5642 7.75921 24.5241C7.96621 24.2905 8.24452 24.2211 8.54481 24.3742C8.64118 24.4231 8.71635 24.4042 8.81734 24.3676C8.81773 24.3676 8.81773 24.3672 8.81734 24.3669C8.60263 24.1514 8.3567 24.077 8.0753 24.1394C7.82435 24.1953 7.61581 24.3148 7.51559 24.5812C7.51559 24.5816 7.51559 24.5816 7.51597 24.582L7.60733 24.5997C7.40071 24.6224 7.1941 24.6452 6.97284 24.6695C6.97245 24.6695 6.97245 24.6695 6.97245 24.6691C6.84987 23.5435 6.53301 22.4938 6.07776 21.4823C6.07737 21.4819 6.07699 21.4819 6.07699 21.4827C6.09279 21.6789 6.10975 21.8751 6.12402 22.0717C6.18646 22.939 6.16989 23.8056 6.09665 24.6714C6.09164 24.7284 6.07853 24.7597 6.01184 24.7658C5.34959 24.8287 4.68657 24.8896 4.02124 24.8649C3.73522 24.8541 3.45035 24.8032 3.16548 24.7685C3.12732 24.7639 3.08993 24.7481 3.05369 24.7346C2.86751 24.6656 2.87406 24.6637 2.91916 24.4709C3.1277 23.5762 3.3401 22.6819 3.53438 21.7838C3.7144 20.9523 3.8709 20.1154 4.03396 19.2805C4.07559 19.0673 4.10296 18.8518 4.13457 18.6371C4.18006 18.3249 4.43486 18.0497 4.76135 17.9841C5.63523 17.8087 6.51026 17.6387 7.38491 17.4653C7.977 17.3477 8.56832 17.2271 9.16003 17.1079C9.34159 17.0713 9.34236 17.0721 9.4368 17.2124C9.43719 17.2128 9.43757 17.2128 9.43757 17.212C9.43526 17.1658 9.43295 17.1195 9.42986 17.0571L9.43025 17.0567C9.56555 17.0293 9.71704 16.9981 9.86854 16.968C10.833 16.7764 11.7975 16.5829 12.7623 16.3944C13.1925 16.3104 13.5599 16.5621 13.6971 16.9773C13.8066 17.3088 13.9646 17.6245 14.1011 17.9475C14.1011 17.9479 14.1011 17.9479 14.1011 17.9483C14.0756 17.9637 14.0425 17.9737 14.0259 17.9961C13.891 18.1769 13.8544 18.3819 13.8999 18.599C13.9746 18.9551 14.327 19.186 14.6627 19.1055C14.7652 19.0808 14.778 19.0573 14.7421 18.9501C14.7425 18.949 14.7429 18.9486 14.7433 18.949ZM9.30189 17.5119C9.3096 17.5042 9.3173 17.4969 9.32463 17.4892C9.28146 17.4502 9.24059 17.4082 9.19472 17.3724C9.04593 17.256 9.03976 17.4707 8.94378 17.4861C8.92142 17.4896 8.90831 17.5536 8.89251 17.5902C8.89058 17.5948 8.89598 17.6044 8.90022 17.6094C8.94917 17.6646 8.99852 17.7189 9.04747 17.7737C9.05557 17.766 9.06405 17.7582 9.07214 17.7509C9.04207 17.7189 9.00353 17.6908 8.98387 17.6534C8.96421 17.6156 8.96267 17.5682 8.95303 17.525C8.95303 17.525 8.95303 17.5246 8.95341 17.5246C8.99659 17.5324 9.04362 17.5316 9.08178 17.5497C9.11956 17.5678 9.1477 17.6052 9.18046 17.6337C9.16042 17.5767 9.11917 17.5416 9.09103 17.4984C9.07561 17.4745 9.08139 17.4368 9.07792 17.4048C9.07792 17.4048 9.07792 17.4044 9.07831 17.4044C9.11069 17.4036 9.15001 17.3909 9.17391 17.4048C9.22055 17.4333 9.25948 17.4757 9.30189 17.5119ZM8.33126 18.4945C8.33742 18.4876 8.34321 18.481 8.34937 18.4741C8.27806 18.4139 8.23026 18.2829 8.1231 18.3222C8.04099 18.3523 7.95734 18.4502 7.92843 18.5361C7.89682 18.6302 8.01208 18.6757 8.0753 18.7323C8.05333 18.6872 8.01208 18.6556 7.99011 18.614C7.97353 18.5832 7.98163 18.5396 7.97893 18.5014C7.97893 18.5014 7.97893 18.5011 7.97931 18.5011C8.01671 18.5038 8.05949 18.496 8.09033 18.5118C8.13273 18.5334 8.1655 18.5728 8.20289 18.6047C8.20906 18.5974 8.21523 18.5897 8.22139 18.5824C8.18863 18.5516 8.14931 18.5253 8.12503 18.4887C8.10575 18.4594 8.10498 18.4182 8.09611 18.3823C8.09611 18.3823 8.09611 18.3819 8.0965 18.3819C8.1362 18.3843 8.18208 18.3746 8.21369 18.3916C8.2584 18.4155 8.29232 18.4594 8.33126 18.4945ZM6.98864 19.4628C6.97862 19.4605 6.96859 19.4578 6.95857 19.4555C6.95125 19.491 6.92696 19.5349 6.94007 19.5603C6.96358 19.6066 7.00213 19.6606 7.04685 19.676C7.08578 19.6895 7.14977 19.6648 7.18639 19.6363C7.21029 19.6174 7.22571 19.5465 7.2099 19.5249C7.14206 19.4328 7.06072 19.3506 6.98479 19.2647C6.97631 19.2732 6.96782 19.2813 6.95896 19.2897C7.01909 19.3533 7.08539 19.4123 7.13666 19.4825C7.15864 19.5122 7.1621 19.5688 7.14977 19.6047C7.14245 19.6259 7.07383 19.6502 7.0561 19.6382C7.02025 19.6143 6.99674 19.5684 6.97631 19.5276C6.9686 19.5118 6.98363 19.4848 6.98864 19.4628ZM8.44497 17.9132C8.44497 17.9136 8.44497 17.9136 8.44497 17.9132C8.50009 17.9645 8.55637 18.0285 8.62499 18.0751C8.65313 18.0944 8.71982 18.0928 8.74526 18.0716C8.7734 18.0485 8.77455 17.9922 8.79267 17.9336C8.74487 17.9915 8.70555 18.0581 8.69129 18.0531C8.63501 18.0331 8.58683 17.9911 8.53286 17.9552V17.9548C8.58143 17.8943 8.61342 17.855 8.66045 17.7968C8.66045 17.7964 8.66045 17.7964 8.66007 17.7964C8.57796 17.8411 8.51898 17.8731 8.44497 17.9132ZM7.51944 19.1043C7.53101 19.0997 7.54218 19.0955 7.55375 19.0908C7.53447 19.0504 7.5152 19.0099 7.49554 18.969H7.49516C7.45931 18.9968 7.3984 19.0218 7.39455 19.0534C7.38877 19.1016 7.41112 19.1652 7.44427 19.2015C7.44659 19.2038 7.4489 19.2057 7.4516 19.2076C7.57688 19.2928 7.632 19.1887 7.70254 19.1259C7.53717 19.2184 7.48937 19.2284 7.44119 19.1548C7.40149 19.0943 7.42384 19.048 7.47781 18.9922C7.4913 19.028 7.49747 19.0442 7.50364 19.06C7.50903 19.0754 7.51404 19.0897 7.51944 19.1043ZM7.86714 18.7539C7.79776 18.6838 7.73107 18.6788 7.6744 18.7458C7.62005 18.8106 7.63316 18.8703 7.70447 18.9332C7.66399 18.7932 7.69984 18.7 7.86714 18.7539ZM8.45769 18.3638C8.49277 18.3388 8.49585 18.2937 8.46193 18.2362C8.42685 18.1765 8.39833 18.1129 8.36672 18.0512C8.3247 18.0971 8.35014 18.1468 8.38252 18.2015C8.41182 18.2509 8.43148 18.306 8.45769 18.3638ZM7.36294 19.454C7.31167 19.3688 7.26426 19.289 7.2207 19.2165C7.17444 19.2782 7.20374 19.3372 7.36294 19.454ZM9.53895 17.2826C9.4661 17.2826 9.38977 17.2826 9.32579 17.2826C9.37436 17.3701 9.47381 17.3731 9.53895 17.2826Z" />
<path fill="#FA9D6B" d="M6.9362 7.62366C6.65211 7.62366 6.41542 7.86188 6.41504 8.14791C6.41504 8.44125 6.64941 8.67485 6.94353 8.67408C7.22801 8.6737 7.46392 8.43701 7.46508 8.15022C7.46662 7.85841 7.23032 7.62366 6.9362 7.62366Z" />
<path fill="#FA9D6B" d="M12.8903 15.329C12.0542 14.8232 11.2146 14.3229 10.3789 13.8167C10.2112 13.715 10.0362 13.688 9.84732 13.7161C9.50348 13.7674 9.19085 13.5612 9.10605 13.2239C9.08022 13.1206 9.06442 13.015 9.0409 12.9113C9.00236 12.739 8.96111 12.5674 8.92064 12.3955C8.87823 12.4603 8.83583 12.525 8.79343 12.5902L8.75642 12.5693C8.79112 12.4757 8.82581 12.382 8.86551 12.2748C8.8871 12.3226 8.90406 12.3593 8.92064 12.3955C8.92141 12.3966 8.92179 12.3974 8.92218 12.3986C8.87399 12.138 8.79497 11.7066 8.74177 11.4183C8.74177 11.4175 8.74139 11.4172 8.74177 11.4168C8.74023 11.4033 8.73869 11.3882 8.73561 11.3736C8.50393 10.2075 8.27226 9.04107 8.03944 7.87501C8.01168 7.73585 7.98778 7.59438 7.94229 7.461C7.82511 7.1133 7.57339 6.89435 7.24188 6.76021L7.22338 6.75828L7.21914 6.7579C7.2203 6.75674 7.22184 6.75558 7.223 6.75443C7.21837 6.75288 7.21336 6.75173 7.20835 6.75057C7.15053 6.73554 7.08885 6.72552 7.02987 6.72012C7.0133 6.71858 6.99711 6.71742 6.9813 6.71665C6.9628 6.71549 6.94507 6.71511 6.92772 6.71511C6.92772 6.71395 6.91654 6.72089 6.91654 6.71973C6.89071 6.71819 6.88031 6.7074 6.85949 6.7074C6.17026 6.70701 5.63483 7.35076 5.76589 8.03729C5.94707 8.98634 6.13942 9.93268 6.32715 10.8802C6.50794 11.793 6.6841 12.7066 6.87337 13.6178C6.94777 13.9771 6.71147 14.3448 6.34681 14.4158C6.1876 14.447 6.05616 14.5318 5.9594 14.6621C5.37078 15.4558 4.78293 16.2499 4.19623 17.0447C4.08676 17.1931 4.07866 17.3573 4.16501 17.4923C4.2529 17.6295 4.40169 17.6892 4.58441 17.653C5.1314 17.5455 5.678 17.436 6.22461 17.3273C7.2068 17.1315 8.18862 16.9356 9.17081 16.7406C10.3619 16.5039 11.5534 16.268 12.7446 16.0309C12.7928 16.0213 12.8421 16.007 12.8853 15.9839C13.1435 15.8444 13.1485 15.4851 12.8903 15.329ZM6.94353 8.6741C6.64941 8.67487 6.41504 8.44127 6.41504 8.14792C6.41542 7.8619 6.6521 7.62368 6.9362 7.62368C7.23032 7.62368 7.46662 7.85843 7.46508 8.15024C7.46392 8.43703 7.22801 8.67371 6.94353 8.6741Z" />
<path fill="#FA9D6B" d="M7.24199 6.76015L7.22363 6.75824C7.22402 6.75709 7.22478 6.75595 7.22516 6.7548C7.22516 6.75442 7.22555 6.75365 7.22555 6.75327C7.22555 6.75327 7.22593 6.75289 7.22593 6.7525V6.75327C7.23052 6.75518 7.23549 6.75709 7.24008 6.75939C7.24046 6.75939 7.24085 6.75939 7.24123 6.75977C7.24161 6.75977 7.24199 6.75977 7.24199 6.76015Z" />
<path fill="#FA9D6B" d="M7.46508 8.15022C7.46392 8.43701 7.22801 8.6737 6.94353 8.67408C6.64941 8.67485 6.41504 8.44125 6.41504 8.14791C6.41542 7.86188 6.65211 7.62366 6.9362 7.62366C7.23032 7.62366 7.46662 7.85841 7.46508 8.15022Z" />
<path fill="#FA9D6B" d="M8.92105 12.3955C8.87865 12.4603 8.83624 12.525 8.79384 12.5902L8.75684 12.5693C8.79153 12.4757 8.82622 12.382 8.86593 12.2748C8.88751 12.3226 8.90447 12.3593 8.92105 12.3955Z" />
<path fill="#FA9D6B" d="M12.3571 3.48828C10.7782 3.72921 9.82256 4.68018 9.56737 6.32385C9.50839 5.58566 9.21428 4.93074 8.67576 4.39261C8.13494 3.85217 7.47886 3.55266 6.71484 3.49214C8.32459 3.3842 9.50107 2.0069 9.56853 0.662354C9.82333 2.29716 10.7824 3.24813 12.3571 3.48828Z" />
<path fill="#FA9D6B" d="M5.72718 6.45642C4.14827 6.69735 3.19267 7.64832 2.93749 9.29199C2.87851 8.5538 2.58439 7.89888 2.04588 7.36075C1.50506 6.82031 0.848976 6.5208 0.0849609 6.46028C1.69471 6.35234 2.87119 4.97504 2.93864 3.63049C3.19344 5.2653 4.15251 6.21627 5.72718 6.45642Z" />
<path fill="#FA9D6B" d="M14.7409 18.9471C14.7779 19.0561 14.766 19.08 14.6623 19.1047C14.3265 19.1849 13.9742 18.954 13.8994 18.5982C13.8539 18.3812 13.8906 18.1761 14.0255 17.9953C14.0421 17.973 14.0752 17.9629 14.101 17.9475C14.1161 17.9822 14.1307 18.0173 14.1457 18.052C14.1346 18.1237 14.1311 18.1973 14.1111 18.2663C14.0263 18.5573 14.1708 18.8657 14.4391 18.9313C14.5328 18.954 14.6361 18.9386 14.7348 18.9409C14.7382 18.944 14.7402 18.9463 14.7409 18.9471Z" />
<path fill="#FA9D6B" d="M14.7348 18.9408C14.6362 18.9389 14.5329 18.954 14.4392 18.9312C14.1709 18.8657 14.0263 18.5573 14.1111 18.2663C14.1312 18.1973 14.1347 18.1236 14.1458 18.0519C14.2376 18.1965 14.3297 18.341 14.4215 18.4852C14.3844 18.4505 14.3474 18.4158 14.3004 18.3719C14.2557 18.5141 14.3158 18.6047 14.3956 18.6884C14.4457 18.7412 14.502 18.7701 14.5733 18.7265C14.6273 18.7978 14.6813 18.8695 14.7348 18.9408Z" />
<path fill="#FA9D6B" d="M14.5733 18.7266C14.502 18.7701 14.4457 18.7412 14.3956 18.6884C14.3158 18.6048 14.2557 18.5142 14.3004 18.3719C14.3474 18.4159 14.3845 18.4506 14.4215 18.4853C14.4723 18.5658 14.5228 18.6464 14.5733 18.7266Z" />
<path fill="#FA9D6B" d="M7.22543 6.75323C7.22467 6.75361 7.22428 6.75399 7.22352 6.75437C7.21893 6.75284 7.21396 6.7517 7.20898 6.75055C7.21434 6.75131 7.22008 6.75208 7.22543 6.75323Z" />
<path fill="#FA9D6B" d="M7.22707 6.7525V6.75398H7.22559C7.22633 6.75324 7.22633 6.75324 7.22707 6.7525Z" />
<path fill="#FA9D6B" d="M18.3225 19.7087C18.3121 19.7107 18.3009 19.7118 18.2898 19.7118H17.2305C17.2309 19.7107 17.2312 19.7099 17.2316 19.7087H18.3225Z" />
<path fill="#FA9D6B" d="M19.997 6.81942L19.9932 6.81559V6.81521C19.9939 6.811 19.9951 6.80679 19.9966 6.80182C19.997 6.80717 19.997 6.81329 19.997 6.81942Z" />
<path fill="#FA9D6B" d="M19.9956 6.81942C19.9926 6.82016 19.9893 6.8209 19.9863 6.82127C19.9882 6.81942 19.9896 6.81758 19.9919 6.81573L19.9956 6.81942Z" />
<path fill="#FA9D6B" d="M7.60775 24.5993C7.58038 24.5939 7.5534 24.5885 7.51562 24.5812C7.61585 24.3148 7.82478 24.1949 8.07572 24.1391C8.35751 24.0766 8.60344 24.151 8.81815 24.3669C8.71677 24.4035 8.6416 24.4228 8.54523 24.3738C8.24495 24.2212 7.96663 24.2905 7.75963 24.5238C7.72417 24.5638 7.65748 24.5758 7.60467 24.6009C7.60428 24.6012 7.60775 24.5993 7.60775 24.5993Z" />
<path fill="#FA9D6B" d="M9.3014 17.5119C9.259 17.4757 9.22045 17.4333 9.17304 17.4055C9.14914 17.3917 9.10982 17.4044 9.07744 17.4051C9.08091 17.4368 9.07513 17.4749 9.09055 17.4988C9.11869 17.542 9.15993 17.5771 9.17998 17.6341C9.1476 17.6052 9.11907 17.5682 9.08129 17.5501C9.04313 17.532 8.9961 17.5324 8.95255 17.525C8.96218 17.5682 8.96334 17.616 8.98338 17.6538C9.00304 17.6916 9.04159 17.7193 9.07166 17.7513C9.06356 17.759 9.05508 17.7667 9.04699 17.774C8.99765 17.7193 8.94831 17.6646 8.89974 17.6098C8.89511 17.6048 8.8901 17.5952 8.89203 17.5906C8.90783 17.5539 8.92094 17.49 8.94329 17.4865C9.03966 17.4711 9.04544 17.2564 9.19424 17.3728C9.24011 17.4086 9.28097 17.4502 9.32414 17.4896C9.31643 17.4969 9.30873 17.5046 9.3014 17.5119Z" />
<path fill="#FA9D6B" d="M8.33095 18.4945C8.2924 18.459 8.2581 18.4155 8.21338 18.3916C8.18177 18.3746 8.13551 18.3842 8.09581 18.3819C8.10468 18.4182 8.10545 18.4594 8.12472 18.4887C8.14862 18.5253 8.18832 18.5515 8.22109 18.5824C8.21492 18.5897 8.20875 18.5974 8.20259 18.6047C8.16558 18.5731 8.13243 18.5334 8.09003 18.5118C8.05919 18.496 8.0164 18.5037 7.97863 18.501C7.98132 18.5392 7.97323 18.5831 7.9898 18.614C8.01216 18.6556 8.05341 18.6868 8.07499 18.7323C8.01178 18.676 7.8969 18.6306 7.92813 18.5361C7.95665 18.4502 8.0403 18.3522 8.12279 18.3222C8.22957 18.2832 8.27737 18.4139 8.34907 18.4741C8.3429 18.481 8.33673 18.4879 8.33095 18.4945Z" />
<path fill="#FA9D6B" d="M6.98778 19.4628C6.98277 19.4848 6.96774 19.5117 6.97545 19.5275C6.99588 19.5684 7.01939 19.6143 7.05524 19.6382C7.07297 19.6501 7.14159 19.6258 7.14891 19.6046C7.16163 19.5688 7.15778 19.5121 7.1358 19.4824C7.08415 19.4127 7.01823 19.3533 6.9581 19.2897C6.96658 19.2812 6.97506 19.2731 6.98393 19.2646C7.06025 19.3506 7.1412 19.4327 7.20905 19.5248C7.22485 19.5464 7.20943 19.6174 7.18553 19.6362C7.14891 19.6648 7.08454 19.6894 7.04599 19.6759C7.00127 19.6605 6.96273 19.6066 6.93921 19.5603C6.92649 19.5349 6.95039 19.4909 6.95771 19.4555C6.96774 19.4578 6.97776 19.4605 6.98778 19.4628Z" />
<path fill="#FA9D6B" d="M8.44531 17.9136C8.51932 17.8731 8.57869 17.8411 8.66118 17.796C8.61376 17.855 8.58177 17.8943 8.53282 17.9552C8.58678 17.9911 8.63497 18.0335 8.69163 18.0535C8.70589 18.0585 8.7456 17.9915 8.79301 17.934C8.77489 17.9926 8.77412 18.0485 8.7456 18.072C8.72016 18.0928 8.65347 18.0948 8.62533 18.0755C8.5571 18.0285 8.50044 17.9645 8.44531 17.9136Z" />
<path fill="#FA9D6" d="M7.51936 19.1044C7.51396 19.0897 7.50895 19.0751 7.50355 19.0608C7.49739 19.0446 7.4916 19.0284 7.47773 18.993C7.42376 19.0492 7.40179 19.0951 7.44111 19.1556C7.48929 19.2289 7.53671 19.2188 7.70246 19.1267C7.66044 19.1641 7.62382 19.2161 7.57487 19.2343C7.53863 19.2478 7.4704 19.2308 7.44419 19.2023C7.41104 19.166 7.38868 19.102 7.39447 19.0539C7.39832 19.0219 7.45961 18.9972 7.49546 18.9691C7.51473 19.0095 7.53439 19.0504 7.55367 19.0909C7.54249 19.0955 7.53092 19.1001 7.51936 19.1044Z" />
<path fill="#FA9D6B" d="M7.86684 18.7539C7.69954 18.7 7.66369 18.7932 7.70417 18.9332C7.63285 18.8703 7.61975 18.8102 7.6741 18.7458C7.73077 18.6788 7.79784 18.6838 7.86684 18.7539Z" />
<path fill="#FA9D6B" d="M8.45753 18.3638C8.43132 18.3064 8.41166 18.2513 8.38236 18.2015C8.34998 18.1468 8.32493 18.0971 8.36656 18.0512C8.39817 18.1129 8.42669 18.1765 8.46177 18.2362C8.49569 18.2937 8.49261 18.3384 8.45753 18.3638Z" />
<path fill="#FA9D6B" d="M7.36331 19.4539C7.2041 19.3371 7.17481 19.2782 7.22107 19.2165C7.26424 19.2893 7.31204 19.3688 7.36331 19.4539Z" />
<path fill="#FA9D6B" d="M9.53836 17.2825C9.47283 17.3731 9.37338 17.37 9.3252 17.2825C9.38918 17.2825 9.46589 17.2825 9.53836 17.2825Z" />
<path fill="#FA9D6B" d="M7.46508 8.15022C7.46392 8.43701 7.22801 8.6737 6.94353 8.67408C6.64941 8.67485 6.41504 8.44125 6.41504 8.14791C6.41542 7.86188 6.65211 7.62366 6.9362 7.62366C7.23032 7.62366 7.46662 7.85841 7.46508 8.15022Z" />
<path fill="#FA9D6B" d="M8.92105 12.3955C8.87865 12.4603 8.83624 12.525 8.79384 12.5902L8.75684 12.5693C8.79153 12.4757 8.82622 12.382 8.86593 12.2748C8.88751 12.3226 8.90447 12.3593 8.92105 12.3955Z" />
</svg>
